SplineFontDB: 3.2
FontName: Shelly2023
FullName: Shelly 2023
FamilyName: Shelly2023
Weight: Regular
Copyright: Copyright (c) 2023, John Stracke
UComments: "2023-6-25: Created with FontForge (http://fontforge.org)"
Version: 0.1
ItalicAngle: 0
UnderlinePosition: -102.4
UnderlineWidth: 51.2
Ascent: 819
Descent: 205
InvalidEm: 0
LayerCount: 2
Layer: 0 0 "Back" 1
Layer: 1 0 "Fore" 0
XUID: [1021 809 942176291 609514]
FSType: 0
OS2Version: 0
OS2_WeightWidthSlopeOnly: 0
OS2_UseTypoMetrics: 1
CreationTime: 1687722075
ModificationTime: 1688858640
PfmFamily: 17
TTFWeight: 400
TTFWidth: 5
LineGap: 92
VLineGap: 0
OS2TypoAscent: 0
OS2TypoAOffset: 1
OS2TypoDescent: 0
OS2TypoDOffset: 1
OS2TypoLinegap: 92
OS2WinAscent: 0
OS2WinAOffset: 1
OS2WinDescent: 0
OS2WinDOffset: 1
HheadAscent: 0
HheadAOffset: 1
HheadDescent: 0
HheadDOffset: 1
OS2Vendor: 'thib'
Lookup: 258 0 0 "'kern' Horizontal Kerning in Latin lookup 1" { "'kern' Horizontal Kerning in Latin lookup 1-1" [150,15,2] } ['kern' ('latn' <'dflt' > ) ]
MarkAttachClasses: 1
DEI: 91125

StartChar: A
Encoding: 65 65 0
Width: 711
Flags: W
HStem: 3 38<520.099 604.391> 221 69<27.1604 61.625> 281 37<266 298.994> 297 25<130.091 195.532> 529 36<54.1501 105.627> 581 31<145.243 300.298>
VStem: 397 87<77.394 234.527 276.359 492.882>
LayerCount: 2
Fore
SplineSet
438 587 m 0xde
 439 587 440 587 441 587 c 0
 466 587 480 586 505 586 c 1
 496 579 491 571 481 567 c 0
 468 561 459 557 447 554 c 1
 482 428 483 349 484 255 c 1
 491 253 500 252 509 250 c 1
 499 246 491 241 484 238 c 1
 484 219 482 200 482 182 c 0
 482 165 484 147 489 124 c 0
 496 87 508 63 541 45 c 0
 545 42 550 41 554 41 c 0
 569 41 583 55 601 59 c 0
 636 68 664 82 699 92 c 1
 683 72 684 54 662 37 c 0
 638 20 622 14 593 9 c 0
 574 6 558 3 543 3 c 0
 530 3 517 5 503 9 c 0
 465 21 438 33 418 67 c 0
 391 112 396 148 392 200 c 0
 391 211 390 222 390 232 c 1
 328 243 338 251 299 263 c 0
 279 269 263 277 248 281 c 1xae
 208 196 176 124 116 28 c 0
 112 23 107 20 102 20 c 0
 93 20 83 27 72 27 c 0
 71 27 71 27 70 27 c 1
 109 110 162 221 196 295 c 1
 186 296 177 297 171 297 c 0
 158 297 149 293 124 283 c 0
 98 272 82 265 63 245 c 0
 58 240 70 235 75 229 c 1
 65 226 59 220 49 221 c 0
 34 224 12 227 12 240 c 0
 12 240 12 241 12 242 c 0
 18 268 38 277 63 290 c 0
 123 322 170 322 210 322 c 1
 223 351 231 369 231 369 c 1
 260 426 297 501 326 559 c 1
 312 562 298 567 281 571 c 0
 254 575 238 581 213 581 c 0
 211 581 207 581 204 581 c 0
 174 580 117 558 100 539 c 0
 97 536 103 534 106 531 c 1
 98 530 93 527 85 529 c 0
 73 532 57 532 54 544 c 0
 54 545 54 546 54 547 c 0
 54 556 66 561 75 565 c 0
 127 591 170 612 231 612 c 0
 263 612 299 607 343 593 c 1
 360 628 372 651 372 651 c 1
 392 649 424 647 424 647 c 1
 425 640 438 588 438 587 c 0xde
266 318 m 1
 276 316 288 314 301 312 c 0
 339 303 359 287 392 275 c 1
 394 304 397 332 397 367 c 0
 397 374 396 382 396 391 c 0
 393 445 384 476 376 529 c 1
 347 476 302 391 302 391 c 2
 288 365 276 341 266 318 c 1
EndSplineSet
Validated: 1
EndChar

StartChar: B
Encoding: 66 66 1
Width: 432
Flags: W
HStem: -9 21G<70 87.5> 33 40<193.139 243.157> 142 37<194.357 252.46> 293 28<243.665 307.466> 650 33<255.833 314.266>
VStem: 35 78<-2.09931 209.185> 43 72<13.646 221 283 458.491> 86 60<556.377 706.672> 135 55<73.3431 141.29> 323 50<179.865 286.386> 333 67<480.55 633.916>
LayerCount: 2
Fore
SplineSet
115 221 m 1xfac0
 113 143 113 143 113 5 c 1
 101 0 94 -9 81 -9 c 0
 80 -9 80 -9 79 -9 c 0
 61 -8 52 3 35 10 c 1xfc
 39 88 41 152 43 212 c 1
 39 211 36 209 32 208 c 1
 36 212 40 215 43 219 c 0xfa
 46 304 50 385 58 493 c 0
 64 573 75 616 86 695 c 1
 98 700 104 708 117 708 c 0
 129 708 135 700 146 696 c 1
 141 640 137 599 133 554 c 1
 202 616 196 637 242 666 c 0
 260 677 280 683 299 683 c 0
 333 683 364 665 381 627 c 0
 395 596 400 569 400 544 c 0xf920
 400 486 369 444 349 416 c 0
 315 371 290 349 243 313 c 1
 252 314 261 315 273 316 c 0
 286 317 296 321 306 321 c 0
 313 321 320 319 328 315 c 0
 361 301 373 273 373 242 c 0
 373 194 345 139 317 110 c 1
 343 74 348 70 385 28 c 1
 375 28 366 26 358 26 c 0
 354 26 351 26 347 27 c 0
 311 36 296 48 283 75 c 1
 254 50 226 33 201 33 c 0
 194 33 186 35 179 38 c 0
 161 47 148 59 142 78 c 0
 138 90 135 102 135 113 c 0
 135 123 138 133 143 145 c 0
 152 164 167 171 187 176 c 0
 195 178 203 179 210 179 c 0
 224 179 238 175 254 171 c 0
 265 168 271 163 284 150 c 1
 308 191 323 217 323 241 c 0
 323 254 317 267 307 280 c 0
 300 289 292 293 282 293 c 0
 280 293 277 293 275 293 c 0
 247 288 234 275 209 262 c 0
 182 248 172 231 143 220 c 0
 133 216 124 216 115 221 c 1xfac0
260 114 m 1
 250 130 232 142 218 142 c 0
 207 142 198 136 193 120 c 0
 192 116 190 112 190 108 c 0xf880
 190 91 202 73 213 73 c 0
 222 73 230 73 260 114 c 1
117 283 m 1
 128 288 139 293 151 303 c 0
 200 344 230 365 270 415 c 0
 300 453 313 479 327 525 c 0
 332 540 333 552 333 564 c 0xf820
 333 576 332 589 329 604 c 0
 325 627 327 635 308 646 c 0
 303 649 298 650 294 650 c 0
 283 650 271 644 261 637 c 0
 238 622 228 616 211 594 c 0
 194 571 187 557 169 535 c 0
 155 519 148 504 129 497 c 1
 124 436 120 360 117 283 c 1
EndSplineSet
Validated: 1
EndChar

StartChar: C
Encoding: 67 67 2
Width: 518
Flags: W
HStem: 3 53<185.282 391.843> 616 62<438.192 478.43>
VStem: 25 104<133.987 334.134>
LayerCount: 2
Fore
SplineSet
423 81 m 0
 438 81 445 65 445 65 c 0
 445 64 446 61 446 60 c 0
 446 41 357 3 256 3 c 0
 225 3 157 4 96 65 c 0
 52 109 25 161 25 246 c 0
 25 284 25 284 69 384 c 0
 71 388 173 620 380 668 c 0
 423 678 423 678 435 678 c 0
 445 678 467 678 479 666 c 0
 489 656 494 651 494 642 c 0
 494 636 485 616 460 616 c 2
 456 616 l 2
 452 616 442 623 438 634 c 1
 424 628 410 621 398 616 c 0
 343 598 281 569 219 477 c 0
 186 429 129 344 129 248 c 0
 129 198 129 56 256 56 c 0
 297 56 385 79 403 79 c 0
 409 79 417 81 423 81 c 0
EndSplineSet
Validated: 1
EndChar

StartChar: D
Encoding: 68 68 3
Width: 532
Flags: W
HStem: 8 60<412.282 472.485> 59 56<172.464 253.873> 252 47<167.332 252.898> 616 49<284.021 407.479>
VStem: 38 58<38.4935 214.577> 48 70<351.721 634.477> 113 45<132.377 214.692> 424 68<437.76 590.234>
LayerCount: 2
Fore
SplineSet
35 176 m 0x7b
 35 180 48 541 48 543 c 2
 48 550 l 2x75
 48 599 38 638 38 688 c 1x79
 48 695 l 1
 86 678 118 598 118 530 c 0x75
 118 514 117 497 117 473 c 0
 117 433 113 388 113 351 c 1
 133 427 133 427 187 550 c 0
 198 577 209 599 241 625 c 0
 272 651 296 665 336 665 c 1
 344 665 l 2
 399 665 419 649 445 622 c 0
 479 586 492 553 492 504 c 1
 492 500 l 2
 492 451 479 419 464 378 c 0
 460 367 455 354 450 340 c 0
 417 242 370 173 356 154 c 1
 363 144 412 82 412 82 c 0
 418 76 425 72 435 69 c 0
 436 69 438 68 439 68 c 0xb3
 452 68 462 90 473 90 c 0
 478 90 499 78 499 59 c 0x73
 499 41 480 8 454 8 c 0xb3
 412 8 353 81 330 120 c 1
 285 67 267 59 234 59 c 0
 217 59 186 64 153 98 c 0
 139 111 113 168 113 200 c 0
 113 205 113 210 113 215 c 1
 109 206 105 196 100 189 c 1
 100 145 96 138 96 121 c 0
 96 94 98 67 106 30 c 1
 99 23 l 2
 98 23 98 23 97 23 c 0
 91 23 86 20 82 20 c 0
 75 20 38 50 38 99 c 0
 38 128 35 152 35 176 c 0x7b
311 219 m 1
 366 322 424 475 424 543 c 0
 424 544 423 582 408 601 c 0
 397 610 379 614 362 616 c 0
 359 616 355 616 352 616 c 0
 338 616 338 616 291 598 c 0
 242 579 179 455 140 303 c 0
 136 285 131 269 126 252 c 1
 126 253 153 299 190 299 c 0
 192 299 196 298 198 298 c 0
 227 294 255 289 311 219 c 1
292 187 m 1
 270 216 245 252 206 252 c 0
 164 252 158 217 158 169 c 1
 158 162 l 2x73
 158 151 160 140 166 132 c 0
 179 122 193 115 208 115 c 0
 210 115 234 115 252 131 c 0
 261 142 275 159 292 187 c 1
EndSplineSet
Validated: 1
EndChar

StartChar: E
Encoding: 69 69 4
Width: 391
Flags: W
HStem: 5 82<133.828 241.946> 627 52<157.884 271.29>
VStem: 28 63<416.653 545.139> 40 79<99.0115 235.951>
LayerCount: 2
Fore
SplineSet
364 571 m 25xd0
 340 578 325 581 302 590 c 24
 267 604 252 622 215 626 c 16
 211 626 208 627 205 627 c 0
 188 627 174 619 159 606 c 8
 135 586 123 572 112 542 c 16
 102 515 91 494 91 469 c 0xe0
 91 460 93 449 97 438 c 8
 107 412 136 403 162 392 c 24
 205 373 232 385 272 359 c 24
 292 346 297 330 312 312 c 25
 286 308 272 307 246 301 c 24
 220 295 203 298 181 283 c 24
 156 265 145 248 134 218 c 16
 126 195 119 178 119 158 c 0
 119 150 120 140 123 130 c 0
 127 116 146 87 160 87 c 0
 161 87 161 87 161 87 c 8
 203 91 224 102 265 111 c 25
 265 111 277 97 295 67 c 25
 259 45 244 19 203 10 c 16
 189 7 177 5 168 5 c 0
 153 5 140 11 120 23 c 8
 82 46 62 70 48 112 c 16
 42 130 40 147 40 162 c 0xd0
 40 182 44 203 50 229 c 8
 56 260 72 272 89 299 c 24
 96 310 105 315 114 324 c 25
 89 341 67 343 51 369 c 24
 32 400 31 422 29 458 c 16
 28 470 28 482 28 492 c 0xe0
 28 518 31 539 40 569 c 8
 49 597 63 611 85 630 c 24
 105 648 119 658 146 666 c 16
 169 673 187 679 207 679 c 0
 213 679 221 679 229 677 c 8
 271 669 291 650 328 631 c 24
 338 626 344 623 350 613 c 24
 359 599 359 587 364 571 c 25xd0
EndSplineSet
Validated: 1
EndChar

StartChar: F
Encoding: 70 70 5
Width: 546
Flags: W
HStem: 262 81<216.589 256.189> 314 28<144 176.813> 544 35<347.776 482.684> 621 25<151.405 201.203>
VStem: 32 98<23.6703 308.765> 46 104<343 621> 58 89<435.613 620.875>
LayerCount: 2
Back
Fore
SplineSet
32 50 m 25x78
 37 194 40 277 46 421 c 24x74
 50 527 53 587 58 693 c 25
 73 699 82 710 98 710 c 24
 113 710 120 699 134 692 c 25
 134 692 141 664 145 646 c 17
 168 646 185 649 202 649 c 0
 210 649 218 649 227 647 c 8
 262 640 279 626 312 613 c 24
 345 600 362 584 397 580 c 16
 401 580 406 579 410 579 c 0
 444 579 465 593 502 593 c 0
 509 593 524 587 524 583 c 0
 524 582 523 581 522 580 c 8
 494 562 473 557 440 552 c 16
 414 548 395 544 375 544 c 0
 364 544 351 545 337 549 c 8
 269 566 241 601 174 621 c 16
 173 621 172 621 171 621 c 0
 162 621 156 610 147 606 c 9x72
 148 564 150 542 150 500 c 24
 149 439 146 404 144 343 c 17xb4
 149 343 155 342 160 342 c 0x74
 170 342 180 343 189 343 c 0
 201 343 214 342 228 335 c 8
 259 321 284 307 292 274 c 16
 292 273 292 272 292 271 c 0
 292 264 284 262 274 262 c 0xb4
 265 262 254 264 246 267 c 8
 215 277 207 300 177 312 c 16
 173 313 170 314 167 314 c 0
 159 314 151 311 142 311 c 9
 137 263 131 236 130 188 c 16
 130 183 130 178 130 173 c 0
 130 122 134 89 137 34 c 9
 126 28 122 20 110 18 c 16
 101 16 92 15 85 15 c 0
 78 15 69 16 61 20 c 8
 46 26 43 39 32 50 c 25x78
EndSplineSet
Validated: 1
EndChar

StartChar: G
Encoding: 71 71 6
Width: 413
Flags: W
HStem: -7 48<156.974 217.34> 294 49<159.585 285.218> 631 50<197.313 289>
VStem: 31 97<372.972 526.408> 289 90<378.768 612.669>
LayerCount: 2
Back
Fore
SplineSet
82 67 m 0
 82 80 99 95 113 95 c 0
 125 95 129 91 142 78 c 0
 149 71 154 62 160 54 c 0
 167 49 186 41 198 41 c 0
 203 41 207 42 211 45 c 0
 244 85 257 124 270 167 c 0
 287 220 289 221 294 267 c 0
 296 278 297 292 300 305 c 1
 263 305 236 294 204 294 c 0
 118 294 31 358 31 434 c 0
 31 436 32 529 100 596 c 0
 154 650 179 661 251 674 c 0
 287 681 287 681 297 681 c 0
 325 681 338 657 339 654 c 0
 374 583 379 530 379 460 c 0
 379 360 383 360 383 347 c 0
 383 292 378 249 368 194 c 0
 359 139 346 70 301 25 c 0
 282 6 207 -7 198 -7 c 0
 174 -7 136 3 87 52 c 0
 84 56 82 63 82 67 c 0
145 374 m 0
 159 364 195 343 223 343 c 0
 234 343 267 344 283 358 c 0
 285 360 290 366 299 377 c 1
 295 414 289 497 289 541 c 0
 289 573 289 594 289 631 c 1
 216 631 188 619 152 544 c 0
 137 510 128 483 128 452 c 0
 128 447 128 397 145 374 c 0
EndSplineSet
Validated: 1
EndChar

StartChar: H
Encoding: 72 72 7
Width: 456
Flags: W
HStem: 312 25<322.281 374.692> 659 20G<151 159.5>
VStem: 80 53<44.0187 270.735> 85 56<146.939 371 392.44 571.062> 257 59<42.0227 312> 282 55<361.061 637.441>
LayerCount: 2
Back
Fore
SplineSet
430 381 m 0xd4
 440 381 440 364 440 364 c 0
 440 338 396 312 340 312 c 0
 333 312 326 312 319 312 c 1
 319 267 315 237 315 212 c 0
 315 184 316 165 316 146 c 0
 316 128 315 110 311 82 c 0
 307 56 294 46 283 22 c 1
 277 19 273 13 266 13 c 0
 259 13 256 17 250 20 c 1
 250 117 257 173 257 270 c 0
 257 290 261 310 261 327 c 1
 185 346 219 352 141 371 c 1xd8
 141 321 133 318 133 48 c 1
 125 46 121 42 114 42 c 2
 112 42 l 1
 104 43 87 48 80 52 c 1xe0
 80 160 85 221 85 329 c 0
 85 344 85 359 85 371 c 1
 48 371 73 347 49 340 c 0
 43 338 36 336 30 336 c 0
 23 336 16 339 16 345 c 2
 16 348 l 2
 16 362 31 369 45 377 c 0
 59 386 60 391 88 394 c 1
 88 430 92 461 97 505 c 0
 104 570 113 606 122 669 c 1
 129 673 147 679 155 679 c 0
 164 679 168 673 177 669 c 1
 157 516 144 462 144 395 c 1
 180 391 221 381 265 359 c 1
 270 403 282 445 282 501 c 0
 282 544 282 569 290 612 c 0
 293 627 302 633 310 646 c 1
 317 648 322 651 329 651 c 2
 333 651 l 1
 342 649 345 643 353 638 c 1
 349 626 343 619 343 606 c 0
 343 564 337 540 337 498 c 0
 337 435 322 390 322 339 c 1
 328 338 333 337 339 337 c 0
 375 337 387 365 414 375 c 0
 420 377 426 381 430 381 c 0xd4
EndSplineSet
Validated: 1
EndChar

StartChar: I
Encoding: 73 73 8
Width: 444
Flags: W
HStem: 41 31<235.147 403.449> 74 30<98.7397 156.578> 539 31<270.128 323.71> 606 27<132.568 184.719> 641 33<269.664 318>
VStem: 165 87<297.777 551.502> 174 87<104.344 497.295> 343 60<582.341 640.151>
LayerCount: 2
Back
Fore
SplineSet
351 41 m 0xfb
 348 41 275 41 206 61 c 1
 196 55 185 51 177 51 c 0
 165 51 163 60 160 72 c 1
 153 73 145 74 139 74 c 0
 111 74 95 57 82 44 c 0
 69 31 71 8 58 8 c 0
 54 8 53 10 49 11 c 0
 45 21 43 31 43 39 c 0
 43 53 48 66 58 79 c 0
 74 101 95 101 123 104 c 0
 126 104 129 104 132 104 c 0
 139 104 148 104 157 103 c 1
 157 109 l 2
 157 166 173 243 174 313 c 1
 174 322 l 2xfb
 174 369 166 397 166 446 c 0
 166 466 165 483 165 498 c 0
 165 518 168 553 185 597 c 1
 179 602 173 606 164 606 c 0
 163 606 161 605 159 605 c 0
 128 599 118 577 95 555 c 0
 85 545 82 536 74 524 c 0
 68 521 63 517 57 517 c 0
 56 517 55 517 54 517 c 0
 46 519 45 528 39 534 c 1
 57 560 61 576 85 598 c 0
 93 606 122 633 166 633 c 0
 177 633 190 631 203 627 c 1
 232 663 264 667 302 672 c 0
 310 673 319 674 327 674 c 0
 372 674 403 653 403 622 c 0
 403 588 351 539 310 539 c 0
 285 539 263 549 255 553 c 1
 252 521 253 492 252 453 c 1
 252 451 l 2xfd
 252 429 261 375 261 294 c 0
 261 214 256 118 233 88 c 1
 279 77 312 72 337 72 c 2
 357 72 l 2
 380 72 406 71 406 60 c 0
 406 59 397 41 351 41 c 0xfb
343 622 m 0
 343 640 318 641 318 641 c 0
 311 641 304 639 296 637 c 0
 267 631 266 626 260 594 c 1
 273 586 279 570 293 570 c 0
 294 570 295 570 296 570 c 0
 321 573 343 604 343 622 c 0
EndSplineSet
Validated: 1
EndChar

StartChar: J
Encoding: 74 74 9
Width: 538
Flags: W
HStem: 20 14<75.4445 130.602> 581 36<325.923 409.891> 647 34<136.011 221.072>
LayerCount: 2
Back
Fore
SplineSet
326 586 m 1
 323 528 295 337 295 222 c 0
 295 215 295 208 295 201 c 0
 295 169 295 138 288 99 c 0
 282 63 252 56 223 33 c 0
 208 22 173 18 145 18 c 0
 122 18 104 20 103 20 c 0
 91 21 69 29 58 34 c 1
 90 38 108 34 139 43 c 0
 162 49 187 50 193 73 c 0
 221 179 208 243 220 352 c 0
 237 508 245 572 258 604 c 1
 254 605 265 607 261 608 c 0
 242 615 203 647 175 647 c 0
 171 647 167 647 163 645 c 0
 120 629 98 587 70 587 c 0
 67 587 64 588 62 589 c 0
 52 593 54 604 49 613 c 1
 84 637 98 661 138 674 c 0
 154 679 168 681 181 681 c 0
 197 681 213 678 232 674 c 0
 274 665 321 617 350 617 c 0
 374 617 394 627 434 646 c 0
 453 656 455 678 482 678 c 0
 493 678 507 673 507 664 c 0
 507 642 483 626 460 612 c 0
 428 593 408 581 370 581 c 0
 354 581 339 583 326 586 c 1
EndSplineSet
Validated: 1
EndChar

StartChar: K
Encoding: 75 75 10
Width: 452
Flags: W
HStem: 10 12<352 396.041> 276 49<124.001 176.757> 572 33<381.235 402.815> 639 20G<87 97>
VStem: 41 78<56.5822 274.923> 59 65<124.551 276 340 519.177 530.875 648.858> 66 53<427.565 658.591> 212 64<356.113 450.205> 212 55<389.749 509.35>
LayerCount: 2
Back
Fore
SplineSet
276 389 m 0xf1
 276 385 273 349 233 314 c 1
 246 312 302 286 312 249 c 0
 332 183 309 101 347 49 c 0
 351 42 352 42 415 22 c 1
 399 18 374 10 358 10 c 0
 347 10 339 9 330 9 c 0
 301 9 246 23 246 132 c 0
 246 156 248 179 248 201 c 0
 248 290 207 292 203 292 c 0
 185 283 138 276 126 276 c 2
 124 276 l 1xf5
 124 233 119 195 119 141 c 0
 119 107 110 89 104 55 c 1
 92 51 85 44 74 44 c 2
 72 44 l 1
 58 44 53 52 41 59 c 1xf8
 41 175 59 243 59 359 c 1
 59 377 l 2xf4
 59 428 52 464 52 515 c 0
 52 520 51 526 52 532 c 0
 52 579 66 605 66 651 c 1
 76 654 82 659 92 659 c 0
 102 659 109 653 119 649 c 1xf2
 119 373 123 372 123 356 c 0
 123 345 124 350 124 340 c 1
 124 340 125 325 126 325 c 0
 142 325 152 335 164 340 c 0
 188 352 212 365 212 416 c 0xf5
 212 433 209 449 209 466 c 0
 209 518 240 541 281 572 c 0
 304 589 347 606 381 606 c 0
 386 606 392 606 397 605 c 0
 405 603 406 579 412 572 c 1
 394 568 381 570 365 563 c 0
 336 552 317 548 299 524 c 0
 267 486 267 437 267 436 c 0xf080
 267 419 276 405 276 389 c 0xf1
EndSplineSet
Validated: 1
EndChar

StartChar: L
Encoding: 76 76 11
Width: 471
Flags: W
HStem: 5 29<392.944 422.256> 55 47<218 264.422> 646 20G<202 211>
VStem: 127 87<102.412 523.25>
LayerCount: 2
Back
Fore
SplineSet
206 666 m 0
 216 666 235 649 239 645 c 1
 239 639 240 584 240 583 c 0
 240 494 215 457 215 313 c 0
 215 296 214 281 214 265 c 0
 214 233 218 192 218 102 c 1
 253 102 287 93 423 34 c 1
 430 27 l 1
 423 19 l 1
 407 14 399 5 382 5 c 1
 375 5 l 2
 292 5 245 55 193 55 c 0
 182 55 163 56 124 28 c 0
 117 23 109 17 101 12 c 1
 91 12 83 5 75 5 c 0
 63 5 52 18 47 29 c 0
 45 32 43 35 41 38 c 1
 48 45 l 1
 64 57 72 69 90 78 c 0
 106 86 118 91 133 94 c 1
 129 127 127 198 127 269 c 0
 127 404 133 439 143 489 c 0
 148 519 157 560 169 645 c 1
 176 653 l 1
 180 655 183 656 185 658 c 0
 191 662 198 666 206 666 c 0
EndSplineSet
Validated: 33
EndChar

StartChar: M
Encoding: 77 77 12
Width: 772
Flags: W
HStem: 620 54<593.137 639.979> 646 49<310.395 371.112>
VStem: 18 102<260 469.431> 100 60<637.906 733> 390 76<446.66 627.885> 604 95<133.179 393.732> 651 78<404.721 614.219>
LayerCount: 2
Back
Fore
SplineSet
112 33 m 0x8a
 111 28 111 24 111 20 c 1
 103 13 l 1
 89 13 79 7 68 7 c 0
 56 7 44 10 29 32 c 0
 24 38 23 38 18 43 c 1xaa
 18 516 58 516 63 551 c 0
 69 598 77 631 86 668 c 0
 90 688 95 708 100 733 c 1
 108 740 l 1
 124 747 124 748 126 748 c 2
 129 748 l 2
 133 747 138 747 160 724 c 1
 160 708 l 2x98
 160 704 161 651 161 650 c 0
 161 518 120 485 120 260 c 1
 125 278 128 289 141 348 c 0
 161 437 174 486 209 572 c 0
 233 627 238 636 262 660 c 0
 267 666 299 695 341 695 c 0x68
 382 695 409 668 423 654 c 0
 447 630 466 613 466 444 c 1
 478 484 486 498 501 541 c 0
 521 600 529 613 559 643 c 0
 577 661 598 674 626 674 c 0xa8
 655 674 669 659 682 646 c 0
 724 604 729 562 729 502 c 1
 729 485 l 2x6a
 729 388 699 393 699 231 c 0
 699 191 703 157 715 111 c 0
 720 94 727 109 754 82 c 1
 735 63 708 54 698 54 c 0
 694 54 685 55 670 72 c 0
 625 122 604 163 604 231 c 1
 604 250 l 2x4c
 604 366 651 433 651 553 c 0
 651 573 646 602 636 616 c 0
 633 618 630 620 627 620 c 0x8a
 620 620 607 613 599 606 c 0
 577 581 576 544 563 508 c 0
 510 363 481 218 443 134 c 1
 440 116 428 56 428 55 c 2
 421 48 l 1
 406 43 398 34 382 34 c 2
 380 34 l 2
 371 35 364 39 358 44 c 0
 354 47 351 50 347 52 c 1
 340 59 l 1
 367 289 371 290 371 330 c 0
 371 403 390 450 390 513 c 0
 390 514 390 612 367 642 c 0
 364 645 359 646 355 646 c 0x4a
 354 646 332 644 306 620 c 0
 287 598 287 599 251 506 c 0
 219 424 207 363 193 292 c 0
 186 257 177 220 167 178 c 0
 155 128 154 99 143 49 c 1
 136 42 l 1
 127 40 120 33 112 33 c 0x8a
EndSplineSet
Validated: 1
EndChar

StartChar: N
Encoding: 78 78 13
Width: 493
Flags: W
HStem: 625 45<243.474 287.86>
VStem: 22 100<175.251 311.722> 22 74<37.3996 211.325 390 477.75> 45 68<412.679 715.767> 248 94<132.928 370.213> 299 80<409.559 616.04>
LayerCount: 2
Back
Fore
SplineSet
77 17 m 0xa0
 71 11 72 12 68 9 c 24
 64 7 62 6 57 5 c 1
 41 7 31 32 22 41 c 1xa0
 22 57 22 234 22 236 c 0xc0
 22 465 45 514 45 649 c 2
 45 697 l 1
 48 700 70 722 84 724 c 1
 86 724 l 2
 90 724 93 723 113 703 c 1
 113 610 l 2
 113 577 103 524 103 390 c 1
 151 546 170 599 199 628 c 0
 224 653 243 670 272 670 c 0
 326 670 379 624 379 520 c 0x94
 379 407 353 380 353 319 c 0
 353 278 342 249 342 216 c 0
 342 197 342 156 368 129 c 0
 369 127 368 126 393 106 c 0
 418 84 438 82 467 66 c 1
 474 58 l 1
 467 51 l 1
 449 49 435 44 420 44 c 0
 412 44 412 44 390 48 c 0
 333 60 321 67 290 98 c 0
 276 112 248 140 248 224 c 0x88
 248 275 262 311 270 367 c 0
 280 443 299 484 299 559 c 2
 299 565 l 1
 299 583 296 612 288 625 c 0
 285 626 283 625 280 625 c 0
 270 625 253 616 243 607 c 0
 232 595 232 595 204 528 c 0
 182 479 174 441 165 398 c 0
 158 366 122 228 122 226 c 0xc4
 117 202 109 186 96 171 c 1
 96 132 98 120 98 105 c 2
 98 93 l 2
 98 87 98 87 91 35 c 1
 82 25 82 22 77 17 c 0xa0
EndSplineSet
Validated: 1
EndChar

StartChar: O
Encoding: 79 79 14
Width: 610
Flags: W
HStem: 2 110<88.009 225.704> 495 90<274.503 375> 602 90<273.313 373.314>
VStem: 1 57<145.504 342.294> 422 54<374.326 499>
LayerCount: 2
Back
Fore
SplineSet
588 638 m 0
 599 638 613 623 613 613 c 0
 613 600 601 561 474 513 c 1
 474 499 476 486 476 474 c 0
 476 442 477 442 450 350 c 0
 427 268 399 168 321 90 c 0
 288 56 197 2 165 2 c 0
 155 2 148 3 130 8 c 0
 99 16 67 24 45 61 c 0
 6 131 1 217 1 259 c 0
 1 292 7 316 16 352 c 0
 28 401 38 430 66 473 c 0
 94 517 152 609 225 642 c 1
 229 661 230 661 243 674 c 0
 255 686 307 692 316 692 c 0
 319 692 337 692 360 686 c 0
 391 678 429 667 455 602 c 1
 477 607 587 638 588 638 c 0
375 585 m 1
 339 595 305 602 273 602 c 1
 305 593 341 585 375 585 c 1
226 558 m 1
 154 475 58 360 58 233 c 0
 58 192 62 163 89 133 c 0
 114 111 140 112 176 112 c 0
 208 112 221 121 256 147 c 0
 295 175 312 188 335 225 c 0
 378 298 394 345 414 427 c 0
 419 450 422 468 422 486 c 0
 422 490 422 495 422 499 c 1
 405 496 390 495 378 495 c 0
 356 495 339 498 321 502 c 0
 313 504 305 505 298 506 c 0
 272 509 242 513 226 558 c 1
EndSplineSet
Validated: 33
EndChar

StartChar: P
Encoding: 80 80 15
Width: 393
Flags: W
HStem: 314 43<324.332 365.479> 443 47<200.703 220.733> 607 52<189.827 250.86> 663 20G<60 73>
VStem: 24 98<30 61 63 296.992> 28 80<620.658 668> 34 88<168.647 533.732 585 667.158> 125 72<381.998 442.574> 266 73<473.712 605.437>
LayerCount: 2
Back
Fore
SplineSet
248 659 m 0xf580
 267 659 339 619 339 541 c 0
 339 517 l 0
 339 505 339 491 337 477 c 0
 337 469 334 444 309 404 c 1
 318 369 319 370 324 364 c 0
 331 359 344 358 346 357 c 2
 359 357 l 2
 364 357 369 357 373 356 c 1
 380 349 l 1
 373 342 l 1
 361 333 356 322 342 318 c 0
 334 316 324 314 313 314 c 0
 306 314 281 314 254 350 c 1
 241 341 213 331 188 331 c 0
 165 331 125 341 125 412 c 0
 125 418 126 446 143 463 c 0
 161 481 162 481 200 488 c 0
 205 489 210 490 217 490 c 0
 230 490 246 486 262 473 c 1
 264 488 266 515 266 544 c 0
 266 574 251 607 251 607 c 0
 248 608 246 607 243 607 c 0
 239 607 233 606 227 604 c 0
 195 593 184 586 158 551 c 0
 148 537 136 523 125 515 c 1
 125 464 122 464 122 456 c 2xf380
 122 63 l 1
 118 61 l 2
 118 54 116 53 116 30 c 1
 109 23 l 1
 104 21 99 17 95 15 c 0
 88 11 81 7 72 7 c 2
 70 7 l 1
 54 7 32 25 24 33 c 1xf980
 24 346 34 346 34 426 c 0
 34 460 38 492 38 535 c 0
 38 569 34 593 34 620 c 0xf380
 34 634 28 650 28 668 c 1xf580
 34 674 l 1xf380
 46 677 54 683 66 683 c 0
 80 683 86 677 100 674 c 1
 108 668 l 2
 108 667 120 586 120 585 c 1
 169 646 240 659 248 659 c 0xf580
210 443 m 0
 198 427 197 396 197 391 c 0
 197 387 198 381 198 381 c 1
 210 386 221 391 229 398 c 1
 224 413 213 443 210 443 c 0
EndSplineSet
Validated: 1
EndChar

StartChar: Q
Encoding: 81 81 16
Width: 815
Flags: HW
HStem: 3 42<629.121 766.633> 14 49<164.621 388.375> 201 41<348.247 470.718> 400 15<532.938 562> 603 47<425.965 600.299> 620 38<280.846 385.648>
VStem: 11 86<134.294 347.036> 293 48<152.109 183.759> 309 80<462.007 568.542> 617 77<388.517 583.418>
LayerCount: 2
Back
Fore
SplineSet
570 167 m 1x7ac0
 617 115 612 45 669 45 c 0
 699 45 742 58 779 58 c 0
 783 58 784 58 800 42 c 1
 793 35 l 1
 765 25 750 13 721 8 c 0
 703 5 688 3 674 3 c 0xbac0
 664 3 652 4 640 7 c 0
 600 16 584 20 555 51 c 0
 543 63 542 64 525 115 c 1
 500 90 425 14 272 14 c 2
 252 14 l 1
 195 14 170 18 130 36 c 0
 103 47 59 68 36 119 c 0
 21 152 15 179 15 209 c 0
 15 223 11 225 11 268 c 0
 11 406 121 566 190 610 c 0
 238 642 322 658 336 658 c 0
 367 658 372 653 397 628 c 1
 390 620 l 1
 381 619 373 620 366 620 c 2
 350 620 l 2
 147 620 97 264 97 219 c 0
 97 167 126 118 139 103 c 0
 148 95 187 63 253 63 c 0
 266 63 282 67 298 67 c 0
 353 67 388 78 432 111 c 0
 470 140 483 155 493 167 c 1
 480 178 439 201 403 201 c 0
 392 201 362 200 348 184 c 0
 343 179 348 165 341 158 c 0x7740
 331 148 331 147 324 147 c 0
 321 147 321 148 309 152 c 1x76c0
 301 159 l 2
 297 164 293 172 293 179 c 0x7740
 293 186 293 188 309 205 c 0
 314 210 351 242 410 242 c 0
 460 242 510 217 522 210 c 1
 573 301 587 339 611 459 c 0
 615 478 617 496 617 511 c 0
 617 533 610 572 600 584 c 0
 587 595 564 603 530 603 c 0
 521 603 518 603 480 597 c 0
 453 594 434 590 414 572 c 0
 400 556 389 534 389 512 c 0
 389 457 438 443 479 435 c 0
 488 433 535 422 562 415 c 1
 569 408 l 1
 562 400 l 1
 554 398 548 397 542 395 c 0
 530 392 518 388 502 388 c 0
 499 388 465 387 465 387 c 0
 395 387 309 437 309 509 c 0
 309 565 335 582 372 606 c 0
 409 631 438 650 517 650 c 0
 620 650 645 628 665 606 c 0
 680 591 693 570 693 538 c 0
 693 527 694 515 694 505 c 0
 694 456 674 295 570 167 c 1x7ac0
EndSplineSet
EndChar

StartChar: R
Encoding: 82 82 17
Width: 364
Flags: W
HStem: 618 47<232.66 286.715> 668 20G<87 92>
VStem: 5 80<43.9465 265.777> 26 59<213.998 269 305 409.437> 56 64<523.359 674> 143 79<78.9338 231.926> 300 59<453.071 611.526>
LayerCount: 2
Fore
SplineSet
156 280 m 1xce
 219 226 222 192 222 139 c 0
 222 110 226 104 237 84 c 0
 242 74 242 74 244 72 c 0
 281 40 281 40 281 31 c 0
 281 26 278 20 278 13 c 1
 270 6 l 1
 264 6 259 5 254 5 c 0
 239 5 191 35 171 69 c 0
 159 87 157 103 154 120 c 0
 149 159 143 141 143 181 c 0
 143 232 127 250 85 269 c 1xd6
 85 268 83 196 83 173 c 0
 83 149 85 131 85 112 c 0xe6
 85 77 82 69 68 50 c 0
 64 46 60 41 56 35 c 1xce
 49 28 l 1
 34 23 34 23 33 23 c 0
 25 23 20 27 12 29 c 1
 5 36 l 1xe6
 5 193 26 281 26 438 c 0xd6
 26 524 56 575 56 655 c 0
 56 660 55 667 56 674 c 1
 66 681 l 1
 70 682 72 683 75 684 c 0
 80 686 84 688 90 688 c 0
 94 688 100 688 120 668 c 1
 120 623 112 597 112 552 c 0
 112 542 112 531 111 522 c 1
 135 575 171 605 219 643 c 0
 235 657 249 665 272 665 c 2
 291 665 l 2
 306 665 326 665 345 639 c 0
 357 622 359 607 359 591 c 2
 359 550 l 2
 359 489 339 452 310 402 c 0
 284 358 282 353 215 308 c 0
 195 294 179 286 156 280 c 1xce
87 305 m 0
 87 310 109 310 115 313 c 0
 152 331 181 331 210 358 c 0
 254 404 280 438 292 499 c 0
 298 523 300 543 300 558 c 0
 300 585 295 602 287 612 c 0
 281 616 270 617 268 618 c 0
 235 618 170 518 169 517 c 0
 153 493 145 476 137 454 c 0
 133 442 128 430 122 416 c 1
 115 409 l 1
 110 407 106 403 103 403 c 0
 100 403 98 405 93 410 c 1
 93 398 91 385 91 371 c 0
 91 346 87 327 87 305 c 0
EndSplineSet
Validated: 1
EndChar

StartChar: S
Encoding: 83 83 18
Width: 387
Flags: W
HStem: 7 51<106.886 180.928> 403 50<212.426 298.34> 627 51<183.721 306.072>
VStem: 0 78<87.7666 156.865> 3 91<372.797 546.742> 144 64<457.253 513.724> 215 86<100.21 253.936> 318 68<472.086 614.196>
LayerCount: 2
Back
Fore
SplineSet
259 627 m 0xef
 257 627 94 608 94 474 c 0xef
 94 440 110 374 129 350 c 1
 163 322 180 338 234 314 c 0
 258 304 259 304 278 284 c 0
 302 261 301 231 301 213 c 2
 301 184 l 2
 301 133 301 88 242 42 c 0
 197 8 138 7 137 7 c 0
 88 7 52 44 26 71 c 0
 8 89 0 104 0 116 c 0
 0 135 21 160 39 171 c 0
 43 174 46 176 50 180 c 0
 53 180 55 180 58 180 c 0
 66 180 66 181 90 157 c 1
 86 147 78 140 78 130 c 0xf7
 78 110 94 94 109 78 c 0
 121 67 141 60 147 58 c 1
 185 58 215 136 215 196 c 0
 215 228 202 253 202 254 c 0
 190 261 171 263 156 270 c 0
 144 276 132 281 122 285 c 0
 78 303 69 310 40 340 c 0
 27 353 3 376 3 455 c 0
 3 484 9 510 23 543 c 0
 42 587 68 605 113 640 c 0
 125 650 160 678 260 678 c 0
 312 678 344 648 351 641 c 2
 362 630 l 2
 385 607 386 580 386 536 c 0
 386 486 338 433 315 418 c 0
 297 406 282 403 259 403 c 2
 229 403 l 2
 222 403 198 403 175 427 c 2
 164 438 l 2
 153 449 144 464 144 478 c 0
 144 489 150 501 161 512 c 0
 180 531 186 537 198 537 c 0
 210 537 225 519 225 511 c 0
 225 499 208 491 208 477 c 0
 208 471 209 464 212 460 c 0
 221 454 235 453 249 453 c 0
 266 453 285 458 299 468 c 1
 310 482 318 507 318 548 c 2
 318 577 l 2
 318 601 290 627 259 627 c 0xef
EndSplineSet
Validated: 33
EndChar

StartChar: T
Encoding: 84 84 19
Width: 440
Flags: W
HStem: 577 49<228.049 396.385>
VStem: 112 96<57.284 506.37>
LayerCount: 2
Back
Fore
SplineSet
99 24 m 1
 99 130 112 191 112 297 c 0
 112 383 112 383 150 601 c 1
 93 589 70 536 44 536 c 0
 38 536 36 537 26 547 c 0
 22 551 19 556 15 561 c 1
 32 579 22 573 49 599 c 0
 97 647 151 647 193 647 c 0
 223 647 298 626 299 626 c 0
 340 626 375 637 395 637 c 0
 398 637 399 637 418 630 c 1
 425 623 l 1
 418 615 l 2
 415 612 412 610 409 607 c 0
 400 599 376 577 291 577 c 0
 268 577 245 579 229 586 c 1
 224 549 208 422 208 348 c 2
 208 312 l 2
 208 222 207 127 194 75 c 0
 188 51 175 42 165 20 c 1
 158 13 l 1
 146 11 141 7 129 7 c 0
 125 7 124 7 106 16 c 1
 99 24 l 1
EndSplineSet
Validated: 1
EndChar

StartChar: U
Encoding: 85 85 20
Width: 503
Flags: W
HStem: 23 33<185.068 277.993> 644 20G<252.5 260.5 459.5 470.5>
VStem: 24 78<140.01 393.294> 330 85<109.281 348.388>
LayerCount: 2
Back
Fore
SplineSet
283 670 m 1
 272 662 263 657 253 648 c 0
 192 594 175 565 157 503 c 0
 134 428 118 387 108 309 c 0
 105 282 102 261 102 241 c 0
 102 215 106 191 113 160 c 0
 120 129 135 116 159 94 c 0
 189 66 208 56 227 56 c 0
 246 56 266 66 296 81 c 0
 321 93 327 101 338 109 c 1
 336 115 335 121 334 128 c 0
 331 146 330 163 330 178 c 0
 330 229 342 271 350 331 c 0
 361 419 367 468 389 554 c 0
 399 597 415 617 431 658 c 1
 438 660 455 664 464 664 c 0
 465 664 466 664 467 664 c 0
 474 663 475 657 480 653 c 1
 470 608 462 583 455 537 c 0
 433 397 415 251 415 157 c 0
 415 139 417 123 417 109 c 0
 417 91 427 81 440 69 c 0
 458 53 475 50 497 38 c 1
 488 33 468 26 458 26 c 0
 430 26 412 27 390 44 c 0
 377 55 365 65 356 76 c 0
 353 74 350 71 347 69 c 0
 322 53 313 34 283 29 c 0
 263 25 244 23 228 23 c 0
 208 23 188 27 165 37 c 0
 110 64 77 87 46 140 c 0
 27 174 24 203 24 236 c 0
 24 250 24 266 24 283 c 0
 24 355 38 395 60 464 c 0
 79 527 90 565 130 618 c 0
 156 651 183 657 221 674 c 0
 235 680 246 684 259 684 c 0
 262 684 265 683 269 683 c 0
 276 682 278 675 283 670 c 1
EndSplineSet
Validated: 1
EndChar

StartChar: V
Encoding: 86 86 21
Width: 851
Flags: W
HStem: -1 21G<375 387.5> 627 51<87.2534 248.324>
VStem: 314 99<219 511.585>
LayerCount: 2
Back
Fore
SplineSet
178 627 m 0
 135 627 73 600 73 597 c 0
 73 593 77 589 77 584 c 1
 66 572 l 1
 60 571 55 567 49 567 c 0
 43 567 40 570 26 585 c 0
 19 591 20 592 9 603 c 1
 20 614 l 1
 32 623 46 643 66 652 c 0
 119 676 151 678 205 678 c 0
 234 678 282 659 305 642 c 0
 356 603 361 592 380 543 c 0
 411 465 413 415 413 332 c 0
 413 292 412 267 412 219 c 1
 462 408 502 460 573 525 c 0
 589 539 649 586 734 608 c 0
 744 611 756 614 768 618 c 0
 780 622 788 627 797 627 c 0
 808 627 814 623 820 616 c 0
 828 608 842 594 843 594 c 1
 831 583 l 1
 722 536 754 562 707 535 c 0
 608 477 607 477 587 453 c 0
 558 421 547 393 534 359 c 0
 500 274 477 214 450 103 c 0
 444 79 438 58 431 34 c 1
 428 31 l 2
 428 30 428 29 429 28 c 1
 418 16 l 1
 413 14 408 11 404 8 c 0
 398 4 392 -1 383 -1 c 0
 367 -1 360 6 346 10 c 1
 335 22 l 1
 329 34 318 40 318 53 c 0
 318 184 314 258 314 389 c 0
 314 441 310 472 292 522 c 0
 259 616 233 627 178 627 c 0
EndSplineSet
Validated: 1
EndChar

StartChar: W
Encoding: 87 87 22
Width: 640
Flags: HWO
HStem: 10 66<107 202.696> 22 64<323.76 401.192> 654 20G<280 294 484 487.5>
VStem: 6 105<87.125 384.329> 229 91<101.073 234.549> 536 94<282.402 513.28>
LayerCount: 2
Back
Fore
SplineSet
263.5 55 m 1x7c
 223.5 16 125.5 10 124.5 10 c 0
 94.5 10 86.5 18 57.5 47 c 0
 49.5 55 8.5 100 8.5 185 c 0
 7.5 220 7.5 249 7.5 291 c 0
 7.5 337 36.4599609375 439.067382812 114.5 564 c 0
 131.5 592 153.215820312 618.979492188 195.5 645 c 0
 221.5 661 268.5 674 296.5 674 c 0
 296.5 674 310.8359375 673.275390625 315.5 669 c 2
 327.5 658 l 2
 331.123046875 654.6796875 331.5 649 335.5 644 c 1
 324.5 633 l 2
 324 632.5 242.666992188 587.844726562 217.5 561 c 0
 202.5 545 191.250976562 526.611328125 176.5 499 c 0
 137.5 426 132.1328125 372.920898438 122.5 298 c 0
 113.5 228 113.5 221 113.5 197 c 0
 113.5 196 106.5 95 131.5 80 c 0
 136.5 77 142.5 76 148.5 76 c 0xbc
 173.5 76 181.225585938 88.3623046875 214.5 105 c 0
 218.5 107 218.5 108 231.5 125 c 1
 231.5 213 248.998046875 259.498046875 311.5 322 c 0
 326.5 337 343.5 347 361.5 364 c 1
 370.5 365 376.5 368 383.5 368 c 0
 392.5 368 394.5 368 417.5 345 c 1
 410.5 336 403.106445312 326.506835938 396.5 319 c 0
 374.5 294 341.413085938 248.520507812 325.5 161 c 0
 323.5 150 322.5 140 322.5 131 c 0
 322.5 121 323.5 86 353.5 86 c 0
 371.5 86 408.5703125 105.9375 423.5 123 c 0
 430.5 131 437.793945312 141.482421875 445.5 152 c 0
 530.5 268 538.5 352 538.5 413 c 2
 538.5 451 l 2
 538.5 495 516.561523438 584.107421875 469.5 611 c 0
 462.5 615 453.5 619 444.5 624 c 1
 433.5 635 l 1
 444.5 646 l 2
 446 647.5 449.212890625 648.3359375 451.5 650 c 0
 462.5 658 486.5 660 486.5 660 c 0
 493.5 660 497.997070312 659.502929688 542.5 615 c 0
 574.5 583 632.5 512 632.5 403 c 0
 632.5 325 604.432617188 259.03515625 589.5 230 c 0
 571.5 195 554.108398438 176.331054688 530.5 148 c 0
 450.5 52 425.5 22 356.5 22 c 0
 320.5 22 286.5 33 263.5 55 c 1x7c
EndSplineSet
EndChar

StartChar: X
Encoding: 88 88 23
Width: 632
Flags: W
HStem: 13 47<80.8767 155.881> 25 64<419.094 470.186> 553 48<521.836 626.634> 629 51<97.211 209.907>
VStem: 6 56<70.6108 139> 274 97<230.616 388.887>
LayerCount: 2
Back
Fore
SplineSet
606 601 m 1xbc
 626 581 627 581 627 577 c 0
 627 570 606 553 602 553 c 0
 602 553 595 553 594 553 c 2
 574 553 l 2
 572 553 570 553 568 553 c 0
 567 553 507 531 451 478 c 0
 422 447 382 375 371 353 c 1
 371 228 371 203 419 90 c 0
 421 89 423 89 426 89 c 0
 448 89 503 139 526 139 c 2
 528 139 l 2
 535 138 538 134 544 131 c 1
 555 120 l 1
 548 109 547 101 538 92 c 0
 505 60 470 25 446 25 c 0x7c
 432 25 420 22 408 22 c 0
 366 22 311 73 288 182 c 1
 274 155 243 105 204 66 c 2
 193 54 l 2
 171 31 144 13 106 13 c 0
 93 13 61 16 42 35 c 2
 32 45 l 2
 12 67 6 101 6 136 c 1
 25 154 27 157 33 157 c 0
 38 157 43 155 51 151 c 1
 62 139 l 1
 64 130 67 122 68 114 c 0
 71 98 74 83 84 70 c 0
 92 64 108 61 111 60 c 1
 182 60 264 252 274 279 c 1
 274 358 275 541 207 620 c 0
 198 626 183 629 167 629 c 0
 142 629 113 621 89 601 c 0
 78 588 77 574 68 557 c 1
 56 546 l 1
 49 545 45 540 39 540 c 0
 31 540 30 541 6 564 c 1
 28 592 35 615 57 638 c 0
 82 662 99 680 167 680 c 0
 273 680 331 631 359 459 c 1
 394 512 445 545 486 572 c 0
 518 592 558 601 606 601 c 1xbc
EndSplineSet
Validated: 33
EndChar

StartChar: Y
Encoding: 89 89 24
Width: 385
Flags: W
HStem: -8 56<50.5177 143.716> 315 62<129.071 199.544> 660 20G<95 120 311 321>
VStem: 8 90<404.494 602.186> 263 96<479.065 676.444>
LayerCount: 2
Back
Fore
SplineSet
255 352 m 1
 233 330 220 315 155 315 c 0
 111 315 77 326 49 360 c 0
 37 376 8 411 8 485 c 0
 8 573 34 614 58 653 c 0
 59 653 78 680 112 680 c 2
 115 680 l 1
 125 678 128 670 136 665 c 1
 147 653 l 1
 136 639 125 634 120 618 c 0
 109 590 98 533 98 489 c 0
 98 458 105 420 134 384 c 0
 141 379 150 377 158 377 c 0
 167 377 189 382 199 397 c 0
 225 435 263 503 263 575 c 2
 263 607 l 2
 263 624 264 640 270 659 c 0
 272 662 273 665 285 678 c 0
 292 685 305 680 317 685 c 1
 325 681 336 682 341 677 c 0
 354 665 354 662 355 659 c 0
 358 646 359 633 359 618 c 0
 359 559 341 490 334 471 c 1
 334 122 282 85 176 17 c 0
 147 -1 122 -8 99 -8 c 0
 48 -8 13 29 5 49 c 0
 4 52 2 55 0 58 c 1
 12 70 l 2
 14 71 15 72 16 73 c 0
 19 75 22 77 26 77 c 2
 30 77 l 2
 56 77 65 48 87 48 c 0
 111 48 152 71 183 101 c 0
 211 130 220 158 237 223 c 0
 250 270 253 289 253 331 c 0
 253 337 254 344 255 352 c 1
EndSplineSet
Validated: 1
EndChar

StartChar: Z
Encoding: 90 90 25
Width: 577
Flags: W
HStem: 0 44<394.193 490.03> 97 49<200.758 277.268> 612 43<183.307 392.541>
LayerCount: 2
Back
Fore
SplineSet
397 0 m 2
 337 0 285 97 223 97 c 0
 216 97 208 96 201 92 c 0
 156 70 156 71 122 41 c 0
 98 22 98 21 97 19 c 2
 90 12 l 1
 64 7 64 7 63 7 c 2
 57 7 l 1
 45 9 41 18 31 24 c 1
 24 31 l 1
 39 53 53 70 65 87 c 0
 264 356 188 340 432 644 c 1
 366 624 306 612 254 612 c 0
 144 612 99 657 92 681 c 0
 91 683 90 686 89 689 c 0
 92 694 93 699 96 702 c 0
 106 712 107 714 113 714 c 0
 132 714 151 676 182 666 c 0
 210 657 231 655 256 655 c 2
 293 655 l 2
 335 655 388 669 470 691 c 0
 473 696 473 697 483 706 c 1
 495 708 504 711 514 711 c 0
 526 711 528 711 554 685 c 1
 538 662 523 644 510 626 c 0
 352 417 328 317 200 144 c 1
 211 146 221 146 231 146 c 0
 311 146 358 100 387 70 c 0
 401 56 425 48 432 44 c 1
 460 44 483 68 501 68 c 0
 503 68 504 67 506 67 c 0
 521 62 526 50 526 49 c 0
 526 48 491 0 426 0 c 2
 397 0 l 2
EndSplineSet
Validated: 1
EndChar

StartChar: a
Encoding: 97 97 26
Width: 506
Flags: W
HStem: 0 52<170.009 271.992> 354 53<196.064 288.08>
VStem: 23 104<103.799 269.997> 259 99<120.18 316.266>
LayerCount: 2
Fore
SplineSet
319 382 m 1
 327 392 348 418 373 418 c 0
 402 418 418 406 425 401 c 0
 429 399 433 396 438 393 c 1
 445 386 l 1
 438 379 l 1
 392 353 392 353 389 350 c 0
 372 330 368 303 365 274 c 0
 359 230 358 230 358 223 c 0
 358 208 359 208 369 158 c 0
 372 144 375 119 398 93 c 0
 424 70 459 62 487 40 c 0
 487 40 498 31 498 29 c 0
 498 28 497 27 497 24 c 0
 497 23 497 22 497 22 c 2
 489 14 l 1
 444 22 419 20 375 33 c 0
 362 36 352 39 342 46 c 1
 329 32 314 16 275 9 c 0
 244 3 226 0 206 0 c 0
 190 0 172 2 147 8 c 0
 102 17 86 35 67 54 c 0
 26 95 23 128 23 162 c 0
 23 253 58 309 113 359 c 0
 142 385 193 407 242 407 c 0
 249 407 266 406 290 398 c 0
 312 390 311 390 319 382 c 1
182 319 m 1
 157 294 127 234 127 187 c 0
 127 121 171 70 172 69 c 0
 182 60 196 52 212 52 c 0
 240 52 262 68 276 77 c 0
 283 82 291 86 300 90 c 1
 275 118 259 136 259 169 c 2
 259 231 l 2
 259 265 262 283 289 331 c 1
 276 342 262 354 253 354 c 0
 249 354 211 347 184 322 c 1
 182 319 l 1
EndSplineSet
Validated: 1
EndChar

StartChar: b
Encoding: 98 98 27
Width: 421
Flags: W
HStem: -8 21G<385.5 399.5> 33 58<200.351 239.605> 155 60<199.023 230.913> 345 43<181.22 288> 661 20G<44 59.5>
VStem: 11 84<398.891 640.838> 19 98<17.762 267 330 595.179> 117 82<91.4033 154.758> 279 80<181.252 330.957>
LayerCount: 2
Back
Fore
SplineSet
65 3 m 0xfa80
 53 3 32 16 19 29 c 1
 19 356 l 2xfa80
 19 443 11 493 11 580 c 0
 11 605 6 617 3 642 c 1
 9 648 8 648 11 651 c 0
 31 674 38 679 50 681 c 1
 54 681 l 2
 65 681 95 653 95 653 c 0xfc80
 95 463 104 403 109 364 c 0
 111 352 113 341 113 330 c 1
 136 359 171 388 272 388 c 0
 304 388 359 331 359 232 c 0
 359 190 352 143 329 112 c 1
 369 66 392 43 412 26 c 1
 419 18 l 1
 416 13 416 4 412 0 c 0
 403 -10 402 -8 397 -8 c 0
 394 -8 392 -8 390 -8 c 0
 381 -8 373 -3 362 -3 c 0
 356 1 350 4 344 7 c 0
 330 15 304 28 279 60 c 1
 250 35 240 36 227 36 c 0
 214 36 204 33 194 33 c 0
 174 33 117 59 117 109 c 0xfa80
 117 126 128 215 199 215 c 0xf980
 240 215 257 196 270 180 c 1
 273 196 279 225 279 255 c 0
 279 275 275 345 233 345 c 0
 220 345 199 339 168 314 c 0
 156 305 132 267 117 267 c 1
 113 267 l 1
 113 197 117 87 117 85 c 0
 117 43 112 38 100 25 c 0
 98 22 95 18 92 14 c 2
 85 7 l 1
 77 7 72 3 65 3 c 0xfa80
204 155 m 2
 201 154 199 140 199 131 c 0xf980
 199 117 202 100 206 91 c 1
 222 91 233 104 241 115 c 1
 221 151 220 151 208 155 c 1
 204 155 l 2
EndSplineSet
Validated: 33
EndChar

StartChar: c
Encoding: 99 99 28
Width: 409
Flags: W
HStem: 9 76<150.386 319.779>
VStem: 6 117<113.75 274.223>
LayerCount: 2
Back
Fore
SplineSet
298 439 m 0
 298 439 325 417 325 398 c 0
 325 396 325 396 324 395 c 2
 306 377 l 2
 298 369 261 378 243 367 c 0
 177 327 182 320 170 309 c 0
 140 275 133 251 125 204 c 0
 124 196 123 187 123 181 c 0
 123 179 123 143 150 107 c 0
 158 101 181 86 205 86 c 0
 217 86 231 85 246 85 c 0
 286 85 331 117 352 117 c 0
 362 117 376 117 383 110 c 2
 401 92 l 2
 403 90 404 87 405 84 c 2
 405 82 l 2
 405 79 404 76 402 74 c 2
 384 56 l 2
 380 52 337 30 315 22 c 0
 289 13 259 9 228 9 c 0
 166 9 101 26 62 65 c 2
 43 84 l 2
 18 109 6 141 6 182 c 0
 6 203 6 271 65 330 c 2
 83 348 l 2
 121 386 219 458 265 448 c 0
 268 447 272 448 298 439 c 0
EndSplineSet
Validated: 33
EndChar

StartChar: d
Encoding: 100 100 29
Width: 581
Flags: W
HStem: -27 45<476 524> 4 53<134.316 315.789> 358 42<214.584 309.529>
VStem: 7 96<87.544 227.638> 340 105<144.452 579.326>
LayerCount: 2
Fore
SplineSet
248 400 m 0x78
 322 400 323 366 323 364 c 0
 323 363 322 347 310 347 c 0
 300 347 287 358 279 358 c 2
 259 358 l 2
 236 358 138 304 110 184 c 0
 107 169 103 156 103 144 c 0
 103 59 196 57 206 57 c 0x78
 217 57 280 58 351 95 c 1
 346 118 340 158 340 210 c 2
 340 306 l 2
 340 310 345 571 376 707 c 0
 386 751 386 751 388 752 c 0
 392 753 395 756 399 758 c 0
 406 762 414 767 425 767 c 0
 440 767 455 747 455 746 c 0
 455 655 449 604 449 513 c 0
 449 408 445 349 445 244 c 0
 445 204 448 174 452 143 c 1
 457 145 468 146 468 146 c 0
 480 146 487 137 487 129 c 0
 487 121 479 115 470 109 c 0
 466 107 463 104 460 101 c 0
 472 41 478 27 498 13 c 0
 500 13 503 14 506 14 c 0
 513 14 523 18 535 18 c 0
 536 18 551 9 551 0 c 0
 551 -14 524 -27 524 -27 c 0xb8
 502 -27 486 -31 469 -31 c 0
 407 -31 386 8 373 36 c 1
 334 13 310 12 286 12 c 0
 245 12 215 4 181 4 c 0
 112 4 7 37 7 133 c 0
 7 216 44 267 62 293 c 0
 87 329 106 344 142 368 c 0
 161 381 192 400 248 400 c 0x78
EndSplineSet
Validated: 1
EndChar

StartChar: e
Encoding: 101 101 30
Width: 435
Flags: W
HStem: 21 53<228.73 407.809> 365 52<220.973 299.706>
VStem: 17 116<200 266.564> 302 75<309.225 363.297>
LayerCount: 2
Back
Fore
SplineSet
133 221 m 0
 133 214 134 210 134 200 c 1
 178 238 236 267 275 304 c 0
 285 314 293 325 299 337 c 0
 301 340 302 344 302 348 c 0
 302 353 300 358 298 362 c 0
 294 364 290 365 284 365 c 0
 278 365 270 363 261 360 c 0
 232 349 213 341 194 323 c 0
 176 304 157 274 144 252 c 0
 138 242 133 234 133 221 c 0
418 47 m 0
 418 43 418 43 408 33 c 0
 404 29 395 28 388 28 c 0
 384 28 378 27 368 26 c 0
 349 24 321 21 293 21 c 0
 268 21 243 24 223 28 c 0
 211 31 201 32 191 34 c 0
 161 39 135 43 104 61 c 0
 86 71 72 80 60 92 c 0
 47 105 39 114 29 135 c 0
 21 151 17 166 17 181 c 0
 17 190 18 200 20 210 c 0
 26 247 26 248 53 288 c 0
 74 320 77 323 112 353 c 0
 149 385 165 395 197 403 c 0
 229 411 254 417 281 417 c 0
 295 417 312 415 329 411 c 0
 343 408 347 403 359 391 c 0
 370 380 377 360 377 356 c 0
 377 339 359 309 325 275 c 0
 305 255 259 209 172 167 c 0
 161 161 153 158 143 155 c 1
 148 142 154 132 160 125 c 0
 169 118 180 113 193 107 c 0
 227 91 349 74 351 74 c 0
 367 72 378 72 394 72 c 1
 401 65 404 65 408 61 c 0
 418 51 418 50 418 47 c 0
EndSplineSet
Validated: 1
EndChar

StartChar: f
Encoding: 102 102 31
Width: 530
Flags: W
HStem: -120 43<71.5734 138.6> 372 25<338 409.264> 397 26<95.1926 130.681> 415 26<142.327 211.409> 536 243<361 443>
VStem: 247 91<188.351 372 431 618.465 622.03 711.111> 426 53<546.444 701.759> 426 43<536.413 698.732>
LayerCount: 2
Back
Fore
SplineSet
119 397 m 0xae
 110 395 99 389 95 397 c 0
 91 406 96 415 104 423 c 1xae
 118 428 154 441 193 441 c 0
 210 441 229 438 247 431 c 1
 247 462 247 491 247 530 c 0
 247 569 247 592 253 630 c 0
 260 676 262 704 285 745 c 0
 297 768 328 779 361 779 c 0
 402 779 447 763 463 727 c 0
 478 694 479 670 479 637 c 0
 479 633 479 629 479 625 c 0x9e
 479 594 473 576 469 545 c 1
 459 541 453 536 443 536 c 0
 435 536 433 541 426 544 c 1x9d
 426 562 426 576 426 591 c 0
 426 598 427 606 426 615 c 0
 421 652 416 674 401 708 c 0
 394 723 389 725 369 738 c 1
 350 716 342 707 336 682 c 0
 332 663 330 643 330 621 c 0
 330 567 340 508 340 470 c 0
 340 443 338 419 338 397 c 1
 348 397 359 400 371 400 c 0
 397 400 427 419 483 434 c 1
 493 432 505 438 509 429 c 0
 513 421 500 419 494 412 c 0
 477 402 467 393 449 385 c 0
 423 374 410 368 383 368 c 0
 371 368 355 369 336 372 c 1
 336 235 316 173 307 137 c 0
 288 64 281 18 240 -45 c 0
 215 -83 188 -99 146 -115 c 0
 137 -118 130 -120 122 -120 c 0
 107 -120 91 -114 73 -108 c 0
 58 -103 56 -90 45 -79 c 1
 50 -73 51 -65 58 -62 c 0
 66 -59 74 -63 83 -63 c 0
 93 -66 100 -77 108 -77 c 0
 110 -77 112 -76 114 -75 c 0
 138 -63 145 -47 159 -25 c 0
 184 13 208 106 216 143 c 0
 217 145 247 291 247 390 c 1
 202 402 211 407 184 412 c 0
 175 414 168 415 160 415 c 0
 155 415 149 416 142 415 c 0xde
 131 413 128 404 119 397 c 0xae
EndSplineSet
Validated: 1
EndChar

StartChar: g
Encoding: 103 103 32
Width: 410
Flags: W
HStem: -180 41<65.6043 141.995> 60 51<137.64 246.796> 381 32<202.245 273.585>
VStem: 39 86<127.657 299.295> 292 84<148 359.959>
LayerCount: 2
Fore
SplineSet
32 -150 m 1
 33 -144 30 -136 34 -132 c 0
 43 -124 53 -126 65 -121 c 1
 78 -127 84 -139 97 -139 c 0
 98 -139 99 -139 101 -139 c 0
 127 -135 142 -122 160 -103 c 0
 192 -69 202 -44 228 -5 c 0
 251 31 269 49 282 90 c 0
 282 90 282 91 283 92 c 1
 273 83 246 60 194 60 c 0
 176 60 154 63 129 70 c 0
 96 79 69 81 54 111 c 0
 42 135 39 154 39 176 c 0
 39 194 39 214 39 237 c 0
 39 273 54 293 73 324 c 0
 90 352 106 362 133 381 c 0
 166 406 207 413 240 413 c 0
 266 413 287 410 292 409 c 0
 316 405 328 397 342 378 c 0
 362 350 373 330 373 296 c 0
 373 251 376 219 376 183 c 0
 376 163 375 142 372 117 c 0
 367 80 344 26 289 -56 c 0
 272 -83 265 -99 241 -122 c 0
 227 -135 188 -171 142 -176 c 0
 126 -178 113 -180 100 -180 c 0
 91 -180 81 -179 69 -176 c 0
 52 -172 47 -160 32 -150 c 1
292 148 m 1
 292 164 292 182 292 202 c 0
 292 222 292 242 292 259 c 0
 292 316 289 357 264 375 c 0
 258 379 252 381 244 381 c 0
 222 381 194 365 167 331 c 0
 133 288 125 236 125 176 c 0
 125 156 126 141 140 127 c 0
 150 117 171 111 194 111 c 0
 209 111 226 114 240 120 c 0
 256 126 256 148 284 148 c 0
 286 148 290 148 292 148 c 1
EndSplineSet
Validated: 1
EndChar

StartChar: h
Encoding: 104 104 33
Width: 409
Flags: W
HStem: 12 31<341.468 388.335> 397 35<191.931 242.918>
VStem: 31 93<84.1868 331.536> 71 79<378.759 675.137> 252 76<40.2842 307.173> 260 71<64.1189 385.219>
LayerCount: 2
Fore
SplineSet
65 686 m 5xd0
 76 691 80 698 92 700 c 4
 103 702 110 697 121 695 c 5
 130 664 144 647 144 615 c 4
 144 580 150 598 150 529 c 0
 150 485 147 435 140 376 c 1
 159 415 196 432 231 432 c 0
 263 432 294 418 306 392 c 0
 324 355 332 332 332 291 c 0
 332 235 331 202 331 146 c 0xd4
 331 115 328 99 328 68 c 0
 328 56 331 46 341 40 c 0
 351 34 360 43 371 43 c 0
 380 43 389 40 389 31 c 0
 389 21 377 19 370 12 c 1
 347 8 334 2 311 2 c 0
 298 2 289 8 280 17 c 0
 266 31 252 41 252 61 c 0xc8
 252 128 260 165 260 232 c 0
 260 256 260 275 260 294 c 0
 260 310 259 328 255 348 c 0
 250 370 244 390 224 397 c 0
 222 398 219 397 217 397 c 0
 204 397 195 383 185 372 c 0
 174 360 173 348 166 334 c 1
 156 332 149 323 140 328 c 0
 138 329 136 331 135 333 c 1
 131 302 124 184 124 106 c 0
 124 89 136 82 143 67 c 1
 133 63 128 55 117 55 c 0
 105 55 97 59 85 61 c 1
 73 70 60 73 52 86 c 0
 39 109 31 124 31 151 c 0xe4
 31 291 71 331 71 552 c 4
 71 604 65 634 65 686 c 5xd0
EndSplineSet
Validated: 1
EndChar

StartChar: i
Encoding: 105 105 34
Width: 299
Flags: W
HStem: 14 91<175.28 213.681> 520 31<110.551 164.863>
VStem: 36 99<70.2093 368.001> 110 55<520.639 549.925>
LayerCount: 2
Back
Fore
SplineSet
156 417 m 9xe0
 150 377 140 353 140 313 c 16
 140 259 135 223 135 177 c 0
 135 164 135 149 135 134 c 8
 135 108 141 95 145 69 c 9
 169 79 190 90 214 100 c 1
 226 100 238 105 247 105 c 0
 253 105 257 104 261 99 c 0
 263 97 264 94 264 92 c 0
 264 83 250 73 244 62 c 9
 224 48 217 33 193 25 c 16
 174 18 157 14 140 14 c 0
 132 14 124 12 114 14 c 8
 86 18 61 23 50 48 c 16
 37 77 36 101 36 127 c 0
 36 143 36 162 36 181 c 0
 36 184 36 187 36 190 c 0
 36 196 36 203 36 208 c 0
 36 248 39 274 46 317 c 8
 53 359 63 380 74 421 c 1
 85 433 98 438 114 438 c 0
 116 438 117 438 119 438 c 8
 135 438 142 439 156 417 c 9xe0
110 539 m 0xd0
 111 548 119 551 129 551 c 0
 134 551 139 550 143 550 c 8
 153 550 165 546 165 537 c 24
 165 526 151 520 140 520 c 16
 126 520 110 526 110 539 c 0xd0
EndSplineSet
Validated: 33
EndChar

StartChar: j
Encoding: 106 106 35
Width: 366
Flags: W
HStem: -182 94<116.75 179.5>
VStem: 222 87<73.5801 398.222>
LayerCount: 2
Back
Fore
SplineSet
307 484 m 25
 283 503 262 508 247 535 c 16
 241 545 236 559 236 570 c 0
 236 578 239 586 248 589 c 0
 250 590 253 590 255 590 c 0
 273 590 283 568 297 552 c 8
 310 537 316 526 325 506 c 9
 325 506 314 492 307 484 c 25
18 -92 m 17
 14 -81 9 -76 9 -66 c 0
 9 -65 9 -63 9 -61 c 8
 10 -54 19 -54 24 -50 c 9
 52 -62 65 -76 95 -83 c 16
 103 -85 113 -88 121 -88 c 0
 127 -88 133 -86 137 -79 c 8
 178 -7 194 40 211 121 c 16
 221 168 222 203 222 242 c 0
 222 264 222 284 222 310 c 0
 222 346 217 370 217 401 c 0
 217 410 219 421 219 432 c 8
 219 441 230 443 237 450 c 9
 265 422 279 406 307 378 c 9
 307 267 309 206 309 95 c 24
 309 35 294 0 275 -57 c 24
 262 -96 253 -119 226 -150 c 24
 209 -170 193 -182 166 -182 c 24
 137 -182 125 -163 100 -148 c 24
 67 -128 50 -114 18 -92 c 17
EndSplineSet
Validated: 1
EndChar

StartChar: k
Encoding: 107 107 36
Width: 458
Flags: W
HStem: 65 48<307.147 377.246> 250 62<148 178.21> 264 52<148.625 204.761>
VStem: 47 106<42.9453 178.648> 47 98<35.0464 107.624 109.121 254.783> 61 85<126.099 257.422 312 566.198> 198 108<112.524 263.04> 316 54<484.444 559.12>
LayerCount: 2
Back
Fore
SplineSet
484 273 m 1052x83
148 312 m 1xc7
 155 313 162 316 179 316 c 0
 189 316 200 320 205 327 c 0
 242 376 253 403 282 457 c 0
 301 493 297 514 316 546 c 0
 321 554 330 561 339 561 c 0
 341 561 343 560 345 560 c 0
 358 557 361 544 370 534 c 1
 359 482 357 444 341 398 c 0
 315 324 270 295 269 294 c 1
 274 291 279 286 283 280 c 0
 301 255 300 235 305 204 c 0
 306 198 306 192 306 187 c 0
 306 173 304 159 304 146 c 0
 304 139 304 131 307 122 c 0
 310 112 322 111 332 113 c 0
 365 119 381 130 412 141 c 1
 423 137 436 141 440 130 c 0
 443 120 429 118 422 111 c 0
 388 96 372 80 336 71 c 0
 322 67 309 65 297 65 c 0
 286 65 274 67 262 71 c 0
 236 80 214 88 205 115 c 0
 200 129 198 143 198 155 c 0
 198 181 205 204 205 236 c 0
 205 264 202 264 187 264 c 1xa7
 174 259 160 255 146 250 c 1xc7
 146 228 145 206 145 180 c 0xcb
 145 151 153 132 153 108 c 0
 153 100 152 91 150 82 c 0
 145 56 132 41 113 27 c 0
 105 21 95 15 86 15 c 0
 83 15 81 15 78 16 c 0
 63 20 59 33 47 43 c 1xd3
 47 171 61 249 61 381 c 0
 61 511 92 562 92 691 c 1
 109 705 120 708 134 708 c 0
 139 708 144 708 150 708 c 0
 163 708 168 698 180 693 c 1
 171 605 158 577 158 489 c 0
 158 419 148 367 148 312 c 1xc7
EndSplineSet
Validated: 1
EndChar

StartChar: l
Encoding: 108 108 37
Width: 244
Flags: W
VStem: 30 96<63.0185 395.834> 41 85<106.309 308.766> 47 92<192.188 530.025> 108 74<658.206 710.998>
LayerCount: 2
Back
Fore
SplineSet
135 62 m 9x80
 160 69 178 75 184 75 c 17
 196 79 203 79 212 71 c 0
 218 66 210 58 209 50 c 9
 189 38 182 25 158 19 c 16
 145 16 133 13 122 13 c 0
 113 13 102 15 92 19 c 8
 65 29 44 39 36 66 c 16
 32 81 30 93 30 105 c 0x80
 30 133 41 156 41 190 c 8x40
 41 237 47 263 47 311 c 24x20
 47 440 60 537 80 636 c 24
 86 665 97 679 108 707 c 1
 122 709 131 714 143 714 c 0
 145 714 149 715 152 714 c 8
 166 711 170 700 182 692 c 9x10
 171 627 161 592 153 527 c 24
 143 447 139 332 139 269 c 24x20
 139 225 126 202 126 158 c 24
 126 121 131 99 135 62 c 9x80
EndSplineSet
Validated: 1
EndChar

StartChar: m
Encoding: 109 109 38
Width: 567
Flags: W
VStem: 28 95<27.1882 209.539> 41 99<43.5695 249.645> 70 75<340.969 495.953> 221 77<37.9468 90.1548> 265 79<182.048 310.925> 383 96<91.2827 199.332> 450 67<248.375 388.667>
LayerCount: 2
Back
Fore
SplineSet
70 443 m 0x20
 70 459 70 470 70 486 c 1
 84 491 97 501 112 501 c 0
 127 501 134 493 148 484 c 1
 148 426 145 389 145 340 c 1
 145 340 147 341 148 342 c 0
 175 378 183 406 221 429 c 0
 230 434 240 436 250 436 c 0
 263 436 277 432 292 426 c 0
 329 412 331 399 337 366 c 1
 343 373 348 379 356 387 c 0
 372 403 380 417 403 421 c 0
 410 422 417 424 423 424 c 0
 441 424 456 419 473 407 c 0
 498 390 512 372 516 342 c 0
 517 335 517 329 517 323 c 0x32
 517 290 506 265 500 228 c 0
 494 193 482 176 482 140 c 0
 482 129 479 120 479 111 c 0
 479 105 481 97 486 91 c 0
 500 73 520 76 540 66 c 1
 527 58 521 48 506 45 c 0
 492 43 480 40 469 40 c 0
 461 40 452 41 443 45 c 0
 417 55 397 64 388 90 c 0
 385 99 383 109 383 117 c 0x04
 383 135 390 151 396 173 c 0
 410 227 450 267 450 332 c 0
 450 340 451 348 450 357 c 0
 448 373 440 382 427 394 c 1
 413 378 401 368 388 351 c 0
 366 323 364 293 344 267 c 1x0a
 344 177 339 163 323 100 c 0
 317 75 307 63 298 39 c 1x10
 286 37 276 31 265 31 c 0x08
 263 31 261 31 258 32 c 0
 242 35 235 46 221 55 c 1x10
 230 107 236 138 244 190 c 0
 253 245 265 276 265 332 c 0
 265 359 262 377 248 397 c 1
 193 344 178 263 140 213 c 1x48
 140 139 123 75 123 42 c 0x80
 123 36 124 31 125 27 c 1
 109 25 96 16 82 16 c 0
 78 16 74 17 70 18 c 0x20
 50 25 31 34 28 57 c 0
 27 61 28 65 28 69 c 0
 28 76 28 83 28 90 c 0x80
 28 133 41 167 41 217 c 0x40
 41 268 48 297 55 348 c 0
 60 386 70 405 70 443 c 0x20
EndSplineSet
Validated: 1
EndChar

StartChar: n
Encoding: 110 110 39
Width: 522
Flags: W
HStem: 0 21G<90.5 114>
VStem: 41 115<15.625 255.434 344 387.19> 41 105<15.625 80.3473> 291 107<3.61537 297.117> 303 92<79.2373 395.408>
LayerCount: 2
Back
Fore
SplineSet
146 33 m 0xa0
 141 14 124 0 104 0 c 0
 77 0 66 18 41 27 c 1xc0
 41 121 41 174 41 268 c 0
 41 343 67 383 81 457 c 1
 90 462 95 469 105 469 c 0
 121 469 128 457 142 449 c 1
 142 408 154 383 154 344 c 1
 238 419 208 405 243 428 c 0
 267 443 282 452 311 452 c 0
 337 452 353 443 371 426 c 0
 388 410 395 395 395 371 c 0xa8
 395 252 398 185 398 65 c 0
 398 36 409 20 425 -4 c 0
 442 -28 459 -33 482 -51 c 1
 469 -56 463 -64 449 -66 c 0
 440 -67 432 -69 425 -69 c 0
 417 -69 408 -66 400 -62 c 0
 362 -44 338 -34 311 0 c 0
 293 24 291 46 291 76 c 0x90
 291 145 303 218 303 301 c 0
 303 332 302 363 297 397 c 1
 277 378 266 361 246 339 c 0
 215 307 194 268 152 227 c 1
 152 131 156 100 156 81 c 0xc8
 156 67 153 58 146 33 c 0xa0
EndSplineSet
Validated: 1
EndChar

StartChar: o
Encoding: 111 111 40
Width: 484
Flags: W
HStem: 12 74<133.094 199.085> 281 68<217.567 275.962> 389 70<216.816 264.648>
VStem: 1 113<86.6992 256.108> 294 106<188.626 282.692>
LayerCount: 2
Back
Fore
SplineSet
141 86 m 0
 192 86 294 163 294 272 c 2
 294 283 l 1
 285 282 273 281 261 281 c 0
 233 281 192 281 157 316 c 1
 117 266 114 181 114 162 c 0
 114 137 118 109 133 86 c 0
 135 85 138 86 141 86 c 0
228 389 m 0
 225 389 221 389 218 387 c 1
 219 385 220 383 222 381 c 1
 215 374 l 1
 215 370 216 365 217 360 c 0
 229 355 247 350 276 349 c 1
 272 359 268 368 263 376 c 0
 263 376 239 389 228 389 c 0
377 365 m 1
 387 368 411 378 449 378 c 2
 465 378 l 1
 484 359 l 1
 465 341 l 1
 448 332 439 324 421 317 c 0
 417 316 417 315 396 307 c 1
 398 296 400 282 400 267 c 0
 400 107 252 46 192 21 c 0
 186 20 168 12 143 12 c 0
 89 12 48 46 47 47 c 2
 28 66 l 2
 15 79 1 119 1 152 c 0
 1 242 61 339 88 366 c 0
 114 392 114 393 133 409 c 0
 136 413 136 413 158 435 c 0
 169 446 191 459 229 459 c 0
 305 459 361 393 377 365 c 1
EndSplineSet
Validated: 1
EndChar

StartChar: p
Encoding: 112 112 41
Width: 538
Flags: W
HStem: 145 48<238.247 268.592>
VStem: 33 100<-178.693 294.85> 358 71<210.981 381.788>
LayerCount: 2
Back
Fore
SplineSet
33 -175 m 1
 33 -76 33 -72 33 27 c 0
 33 125 42 181 53 279 c 0
 60 349 71 387 82 456 c 1
 96 461 104 470 119 470 c 0
 133 470 140 461 152 456 c 1
 152 341 132 278 132 163 c 0
 132 89 133 47 133 -27 c 0
 133 -102 127 -90 127 -165 c 1
 110 -176 103 -193 83 -193 c 0
 63 -193 52 -182 33 -175 c 1
174 250 m 1
 165 250 157 244 151 251 c 0
 143 259 148 269 146 280 c 1
 171 315 179 338 210 368 c 0
 235 393 252 406 286 416 c 0
 302 421 316 424 329 424 c 0
 342 424 355 421 368 415 c 0
 396 403 409 384 419 356 c 0
 426 333 429 316 429 298 c 0
 429 283 428 268 425 250 c 0
 420 215 411 196 392 166 c 0
 379 147 366 136 350 124 c 1
 376 102 391 87 419 62 c 0
 437 46 448 38 466 22 c 1
 457 17 452 8 442 8 c 0
 429 8 422 13 410 17 c 0
 381 33 363 40 336 59 c 0
 323 69 312 79 303 89 c 1
 294 82 283 78 270 76 c 0
 263 75 257 75 251 75 c 0
 231 75 214 80 196 92 c 0
 181 102 171 116 171 133 c 0
 171 136 171 142 172 145 c 0
 176 168 191 176 211 185 c 0
 222 190 233 193 243 193 c 0
 251 193 260 190 270 186 c 0
 286 179 298 171 309 161 c 1
 320 175 328 190 336 212 c 0
 353 260 358 290 358 342 c 0
 358 365 344 379 324 389 c 1
 301 385 288 381 271 368 c 0
 242 346 231 330 207 302 c 0
 192 284 186 270 174 250 c 1
269 124 m 1
 260 132 258 145 246 145 c 0
 237 145 233 123 242 121 c 0
 252 119 261 120 269 124 c 1
EndSplineSet
Validated: 1
EndChar

StartChar: q
Encoding: 113 113 42
Width: 598
Flags: W
HStem: -201 89<302.827 380.123> 5 88<311.244 421.328> 100 75<515.154 562.763> 402 58<134.614 222.488>
VStem: 36 58<191.846 356.087> 218 77<-109.902 28> 231 78<181.978 370.226> 240 72<195.344 374> 240 56<267.469 374 421 469.368> 417 39<-30.8661 5>
LayerCount: 2
Back
Fore
SplineSet
231 193 m 1xfa40
 231 243 240 293 240 374 c 1xf940
 218 374 214 402 191 402 c 0
 160 402 141 391 123 366 c 0
 100 336 94 312 94 274 c 0
 94 268 94 261 94 256 c 0
 94 230 97 209 117 191 c 0
 129 180 142 178 155 178 c 0
 168 178 183 180 198 180 c 0
 209 180 220 187 231 193 c 1xfa40
417 5 m 1
 382 5 343 12 299 28 c 1
 297 11 295 -3 295 -15 c 0xfc40
 295 -32 298 -50 302 -78 c 0
 304 -91 299 -109 312 -111 c 0
 317 -112 322 -112 326 -112 c 0
 348 -112 364 -103 381 -89 c 0
 404 -72 411 -55 420 -27 c 0
 424 -15 420 -5 417 5 c 1
174 460 m 0
 186 460 209 455 240 421 c 1
 240 433 240 444 240 457 c 1
 249 467 257 471 265 471 c 0
 278 471 290 460 296 452 c 1xf8c0
 309 392 310 360 310 299 c 0
 310 288 312 277 312 267 c 0xf940
 312 244 309 226 309 197 c 0
 309 165 309 145 309 116 c 0xfa40
 309 115 352 93 382 93 c 0
 387 93 391 94 395 95 c 0
 439 110 436 148 523 175 c 1
 527 175 532 175 535 175 c 0
 549 175 558 174 563 162 c 0
 566 154 567 147 567 141 c 0
 567 128 562 116 556 100 c 1
 531 90 518 80 500 66 c 0
 495 62 457 19 456 19 c 0
 465 4 483 -41 483 -87 c 0
 483 -120 474 -144 445 -167 c 0
 412 -193 383 -201 358 -201 c 0
 331 -201 310 -191 296 -184 c 0
 269 -171 253 -160 240 -133 c 0xf8c0
 220 -94 218 -45 218 30 c 0
 218 42 218 56 218 70 c 0
 218 71 211 71 208 72 c 0
 172 78 149 77 119 100 c 0
 84 127 63 148 50 190 c 0
 41 221 36 246 36 273 c 0
 36 293 39 315 44 341 c 0
 51 379 66 400 95 427 c 0
 120 450 141 460 174 460 c 0
EndSplineSet
Validated: 33
EndChar

StartChar: r
Encoding: 114 114 43
Width: 481
Flags: W
HStem: 366 46<199.012 345.78> 387 41<198.254 290.332>
VStem: 35 109<135 299.927 300 341.817> 35 96<41 134.959>
LayerCount: 2
Back
Fore
SplineSet
35 36 m 1x50
 35 127 35 178 35 269 c 0
 35 313 43 338 52 382 c 0
 58 411 66 426 74 455 c 1
 74 455 96 460 109 464 c 1
 109 464 130 452 143 445 c 1
 143 445 144 428 144 404 c 1
 167 424 184 428 208 428 c 0x60
 220 428 234 427 250 427 c 0
 273 427 283 412 307 412 c 0
 327 412 334 429 352 438 c 0
 359 442 393 460 416 460 c 0
 424 460 431 458 434 452 c 0
 435 450 435 448 435 446 c 0
 435 437 420 431 413 421 c 1
 391 406 382 394 358 382 c 0
 335 370 320 366 303 366 c 0xa0
 290 366 275 368 256 372 c 0
 242 375 234 387 222 387 c 0
 220 387 217 388 215 387 c 0
 198 381 199 362 189 347 c 1
 178 345 169 337 160 337 c 0
 157 337 154 338 151 340 c 0
 149 341 147 342 146 343 c 1
 146 328 147 313 147 300 c 2
 147 300 141 200 141 135 c 1
 141 135 135 78 131 41 c 1
 131 41 109 9 87 9 c 0
 64 9 55 26 35 36 c 1x50
EndSplineSet
Validated: 1
EndChar

StartChar: s
Encoding: 115 115 44
Width: 327
Flags: W
HStem: 7 56<76.4326 162.35> 426 42<159.051 240.411>
VStem: 17 103<290.575 384.186> 193 105<91.9838 186.204>
LayerCount: 2
Back
Fore
SplineSet
272 410 m 24
 264 401 254 406 243 404 c 1
 227 411 217 426 202 426 c 0
 200 426 198 426 196 426 c 8
 169 421 157 405 141 383 c 16
 126 364 120 347 120 333 c 0
 120 311 134 295 156 280 c 8
 183 262 208 270 233 248 c 24
 263 222 276 201 290 164 c 16
 295 150 298 138 298 125 c 0
 298 116 296 105 292 95 c 0
 266 30 207 7 152 7 c 0
 134 7 115 9 99 14 c 8
 68 23 58 41 30 58 c 1
 27 70 21 79 30 86 c 16
 36 90 42 92 48 92 c 0
 54 92 62 90 69 89 c 9
 88 80 96 69 118 65 c 16
 121 65 123 63 125 63 c 0
 135 63 144 68 152 75 c 8
 172 92 190 102 193 128 c 16
 193 131 193 133 193 136 c 0
 193 160 180 177 164 195 c 8
 139 222 115 222 86 245 c 24
 58 267 35 274 22 306 c 16
 19 313 17 321 17 328 c 0
 17 343 24 357 32 374 c 8
 65 443 110 454 145 461 c 16
 169 466 187 468 201 468 c 0
 233 468 246 455 270 436 c 0
 276 431 279 418 272 410 c 24
EndSplineSet
Validated: 1
EndChar

StartChar: t
Encoding: 116 116 45
Width: 333
Flags: W
HStem: 8 41<202.283 261.524> 441 51<37.5338 100.837> 449 43<39.4268 102> 458 34<201.289 285>
VStem: 90 93<58.8914 445.819>
LayerCount: 2
Back
Fore
SplineSet
7 452 m 1xc8
 34 465 46 480 76 486 c 0
 88 488 100 492 110 492 c 1
 114 511 119 530 125 554 c 0
 131 577 137 584 151 597 c 0
 162 607 171 611 180 611 c 0
 196 611 209 597 221 584 c 1
 213 551 206 522 201 492 c 1
 204 492 208 492 211 492 c 0
 240 492 256 485 285 485 c 1
 285 474 288 469 288 458 c 1x98
 200 458 200 450 194 449 c 1
 185 381 182 322 182 265 c 0
 182 222 183 180 183 136 c 0
 183 131 183 126 183 122 c 0
 183 97 185 77 202 58 c 0
 208 51 216 49 224 49 c 0
 232 49 241 51 250 51 c 0
 252 51 255 50 258 50 c 0
 264 46 276 47 274 40 c 0
 270 29 259 29 249 22 c 1
 230 17 219 8 199 8 c 0
 194 8 188 8 183 8 c 0
 160 8 143 10 125 25 c 0
 100 44 90 65 90 96 c 0
 90 201 94 263 94 369 c 0
 94 399 98 425 102 449 c 1xa8
 77 449 64 441 38 441 c 0
 26 441 19 448 7 452 c 1xc8
EndSplineSet
Validated: 1
EndChar

StartChar: u
Encoding: 117 117 46
Width: 454
Flags: W
HStem: 5 48<144.511 224.1> 34 47<409.189 445.59>
VStem: 20 103<78.1171 386.17> 282 103<122.703 335.99>
LayerCount: 2
Back
Fore
SplineSet
69 471 m 1xb0
 80 488 90 498 108 498 c 0
 125 498 132 490 145 476 c 1
 137 409 124 373 124 306 c 0
 124 273 123 247 123 221 c 0
 123 189 124 160 131 121 c 0
 136 92 141 67 168 55 c 0
 171 54 174 53 177 53 c 0xb0
 197 53 225 76 241 87 c 0
 264 102 275 112 286 122 c 1
 282 137 282 152 282 169 c 0
 282 176 282 183 282 190 c 0
 282 251 291 286 306 344 c 0
 317 388 316 411 340 447 c 0
 350 463 367 466 386 466 c 0
 400 466 406 455 416 443 c 1
 408 374 400 335 393 266 c 0
 388 218 385 190 385 142 c 0
 385 115 394 101 409 78 c 0
 413 72 419 80 426 81 c 1
 434 71 446 68 446 55 c 0
 446 43 432 42 423 34 c 1
 413 34 403 34 394 34 c 0x70
 385 34 376 34 365 39 c 0
 345 48 327 55 314 68 c 1
 286 43 249 5 169 5 c 0
 160 5 151 5 144 5 c 0
 131 5 118 7 105 16 c 0
 69 41 45 59 33 101 c 0
 24 133 20 159 20 186 c 0
 20 218 25 250 25 290 c 0
 25 363 52 400 69 471 c 1xb0
EndSplineSet
Validated: 1
EndChar

StartChar: v
Encoding: 118 118 47
Width: 563
Flags: W
HStem: 421 46<56 134.342>
VStem: 190 108<232 345.741>
LayerCount: 2
Back
Fore
SplineSet
56 421 m 0
 56 421 23 421 23 436 c 0
 23 459 66 467 88 467 c 0
 113 467 137 460 166 451 c 0
 202 440 221 424 245 395 c 0
 273 362 298 313 298 240 c 0
 298 237 298 234 298 232 c 1
 306 239 315 249 321 257 c 0
 408 363 441 410 504 410 c 0
 522 410 533 406 551 404 c 1
 531 394 517 393 500 379 c 0
 454 342 429 319 390 274 c 0
 361 241 324 186 289 145 c 1
 286 126 280 105 275 80 c 0
 271 65 266 56 261 41 c 1
 243 32 233 17 213 17 c 0
 191 17 182 30 162 37 c 1
 170 82 177 108 182 153 c 0
 186 185 190 205 190 232 c 0
 190 344 133 424 90 424 c 0
 79 424 67 421 56 421 c 0
EndSplineSet
Validated: 1
EndChar

StartChar: w
Encoding: 119 119 48
Width: 698
Flags: W
HStem: 9 51<137.16 218.882 414.494 538.569> 412 19<432.018 434.882>
VStem: 10 100<88.4167 325.318> 273 85<122.636 330.648> 606 76<166.288 349.274>
LayerCount: 2
Back
Fore
SplineSet
186 461 m 0
 197 461 203 448 210 441 c 1
 168 394 144 379 127 326 c 0
 113 284 110 250 110 214 c 0
 110 194 111 173 111 148 c 0
 111 113 126 94 150 67 c 0
 154 62 158 60 163 60 c 0
 170 60 176 63 183 66 c 0
 220 79 238 95 273 113 c 0
 279 116 284 119 289 121 c 1
 278 156 273 184 273 211 c 0
 273 243 280 270 286 298 c 0
 295 337 304 359 326 391 c 0
 341 414 378 432 414 432 c 0
 418 432 421 431 425 431 c 0
 443 429 451 419 467 412 c 1
 448 405 431 408 418 392 c 0
 372 336 358 277 358 219 c 0
 358 197 362 177 362 157 c 0
 362 131 370 112 392 97 c 0
 427 73 456 56 494 56 c 1
 509 62 530 65 539 77 c 0
 563 111 572 133 586 172 c 0
 598 205 606 223 606 258 c 0
 606 305 589 330 575 374 c 0
 569 391 565 404 554 416 c 1
 566 430 578 436 590 436 c 0
 600 436 612 431 625 424 c 1
 640 404 682 349 682 263 c 0
 682 244 680 223 675 200 c 0
 663 144 650 109 614 65 c 0
 587 32 542 31 506 9 c 0
 502 9 l 0
 501 9 504 9 497 9 c 0
 490 9 480 9 470 9 c 0
 456 9 443 11 426 16 c 0
 384 28 354 29 324 62 c 0
 318 69 312 76 308 82 c 1
 294 72 294 72 228 34 c 0
 214 26 208 16 193 14 c 0
 176 11 160 9 147 9 c 0
 135 9 123 11 109 16 c 0
 75 28 56 43 34 72 c 0
 17 96 17 115 14 145 c 0
 12 162 10 183 10 208 c 0
 10 253 18 309 51 364 c 0
 75 404 94 420 131 452 c 1
 153 461 164 461 186 461 c 0
EndSplineSet
Validated: 1
EndChar

StartChar: x
Encoding: 120 120 49
Width: 690
Flags: W
HStem: -0 65<434.869 551.83> 35 55<29 65.9753 66 139.728> 362 44<488.555 619.977> 415 56<159.116 227.204>
LayerCount: 2
Back
Fore
SplineSet
29 91 m 1x70
 32 91 66 90 66 90 c 0x70
 76 90 86 91 98 95 c 0
 136 107 155 120 188 144 c 0
 208 158 238 188 277 230 c 1
 277 318 263 353 217 405 c 0
 210 411 202 415 193 415 c 2
 185 415 l 1
 176 413 172 407 168 403 c 0
 146 377 137 377 130 377 c 0
 130 377 115 377 106 386 c 0
 97 395 97 396 93 400 c 0
 92 402 91 402 89 404 c 0
 100 431 108 439 121 452 c 0
 136 467 154 471 184 471 c 0
 251 471 294 451 323 422 c 0
 340 405 361 384 377 333 c 1
 428 384 453 391 500 399 c 0
 531 404 550 406 577 406 c 2
 600 406 l 2
 611 406 617 401 625 397 c 0
 629 395 634 392 639 390 c 1
 646 383 l 1
 648 377 652 372 652 367 c 0
 652 363 651 362 641 352 c 0
 636 347 629 349 621 346 c 1
 599 352 588 362 565 362 c 0
 539 362 525 357 502 347 c 0
 466 330 431 314 401 285 c 0
 397 281 394 276 390 272 c 1
 414 138 429 91 442 75 c 0
 451 67 457 65 469 65 c 0
 515 65 575 102 601 102 c 2
 604 102 l 2
 609 101 609 102 620 91 c 0
 624 87 626 82 631 77 c 1
 626 72 619 65 607 53 c 0
 595 41 591 39 574 29 c 0
 541 10 534 9 504 5 c 0
 486 2 471 0 455 -0 c 0xb0
 440 0 424 2 406 6 c 0
 382 11 362 18 346 34 c 0
 335 45 335 46 331 51 c 0
 307 80 300 103 289 149 c 1
 249 112 212 89 172 68 c 0
 165 64 159 60 153 57 c 0
 135 47 119 40 96 35 c 0
 93 34 91 34 88 34 c 0
 83 34 78 35 74 35 c 2
 29 35 l 1
 20 44 13 50 13 58 c 0
 13 67 15 71 21 84 c 1
 29 91 l 1x70
EndSplineSet
Validated: 1
EndChar

StartChar: y
Encoding: 121 121 50
Width: 413
Flags: W
HStem: -204 54<52.4148 153.339> 15 52<154.477 236.495>
VStem: 24 109<88.3159 350.565> 313 62<395.97 486.181>
LayerCount: 2
Back
Fore
SplineSet
76 461 m 1
 94 474 109 479 120 479 c 0
 137 479 148 467 157 455 c 1
 150 388 137 352 137 285 c 0
 137 248 133 221 133 191 c 0
 133 178 134 163 136 147 c 0
 140 117 143 97 166 77 c 0
 172 71 181 67 194 67 c 0
 207 67 224 71 247 83 c 1
 252 115 257 145 263 185 c 0
 274 261 275 304 288 379 c 0
 294 415 299 433 313 468 c 0
 322 480 332 488 347 488 c 0
 360 488 366 482 375 468 c 1
 375 463 371 85 304 -84 c 0
 290 -121 280 -137 252 -166 c 0
 225 -195 199 -204 167 -204 c 0
 143 -204 117 -199 85 -193 c 0
 60 -188 48 -178 24 -169 c 1
 20 -160 14 -156 14 -146 c 0
 14 -140 24 -142 29 -139 c 0
 46 -141 56 -144 73 -144 c 0
 85 -144 93 -150 103 -150 c 0
 107 -150 112 -148 116 -147 c 0
 160 -132 198 -93 220 -48 c 0
 225 -37 226 -36 237 22 c 1
 223 19 204 15 182 15 c 0
 169 15 154 16 140 20 c 0
 101 31 76 41 50 73 c 0
 26 102 24 128 24 165 c 0
 24 226 32 327 76 461 c 1
EndSplineSet
Validated: 1
EndChar

StartChar: z
Encoding: 122 122 51
Width: 491
Flags: W
HStem: -5 21G<52 63.5> 26 54<247.078 432.715> 33 55<164.119 352.076 354.833 372.137 374.56 448.665> 361 61<114.536 322.14>
LayerCount: 2
Back
Fore
SplineSet
69 460 m 0xd0
 75 460 82 460 89 460 c 0
 113 448 124 433 150 427 c 0
 165 424 182 422 202 422 c 0
 247 422 304 433 377 466 c 0
 378 469 380 474 383 480 c 2
 390 487 l 1
 407 492 419 504 436 504 c 0
 453 501 457 499 474 481 c 0
 476 479 478 476 480 474 c 0
 483 471 484 468 484 465 c 0
 484 464 483 462 483 460 c 0
 483 458 484 455 484 452 c 2
 477 444 l 2
 462 433 454 424 442 416 c 1
 382 321 360 294 272 206 c 0
 228 162 215 148 164 88 c 1xb0
 165 88 252 87 270 87 c 0
 310 87 334 80 374 80 c 0xd0
 386 80 394 83 403 85 c 0
 407 87 412 88 417 89 c 0
 427 83 444 83 450 77 c 0
 460 67 460 66 460 62 c 2
 460 60 l 2
 459 55 459 53 449 43 c 0
 442 36 425 38 412 33 c 0xb0
 375 26 372 26 354 26 c 0xd0
 313 26 269 33 220 33 c 0xb0
 186 33 150 31 112 19 c 0
 105 17 101 14 97 10 c 0
 95 8 93 6 90 4 c 0
 78 2 69 -5 58 -5 c 0
 46 -5 39 0 22 18 c 0
 20 19 18 22 16 23 c 2
 9 26 l 1
 19 39 29 54 38 65 c 0
 79 115 96 134 171 210 c 0
 223 262 282 321 324 377 c 1
 317 375 311 373 301 370 c 0
 287 366 275 361 259 361 c 2
 234 361 l 2
 191 361 131 364 68 395 c 0
 64 397 63 398 54 408 c 0
 48 413 46 420 40 428 c 1
 43 436 41 445 47 450 c 0
 55 458 55 459 56 460 c 0
 60 462 65 460 69 460 c 0xd0
EndSplineSet
Validated: 1
EndChar

StartChar: hyphen
Encoding: 45 45 52
Width: 333
Flags: W
HStem: 233 59<43.7554 230> 250 48<89.2215 311.635>
VStem: 19 295<249.943 267.672>
LayerCount: 2
Fore
SplineSet
57 233 m 0xa0
 47 233 19 242 19 250 c 0x60
 19 251 19 256 23 258 c 0
 49 270 62 287 94 292 c 0xa0
 108 295 209 298 220 298 c 2
 230 298 l 2
 260 298 276 291 304 291 c 0
 308 291 311 288 311 284 c 0
 311 274 314 269 314 257 c 0
 314 253 311 250 307 250 c 0x60
 210 250 123 241 121 241 c 0
 97 241 84 233 57 233 c 0xa0
EndSplineSet
Validated: 1
EndChar

StartChar: period
Encoding: 46 46 53
Width: 228
Flags: W
HStem: 25 198
VStem: 22 184
LayerCount: 2
Fore
SplineSet
93 76 m 25
 158 150 l 25
 105 185 l 25
 70 109 l 25
 93 76 l 25
92 25 m 16
 90 24 88 25 86 25 c 0
 68 25 59 46 46 62 c 0
 34 77 22 88 22 106 c 0
 22 108 22 110 22 113 c 0
 34 134 31 144 42 161 c 24
 60 187 66 213 97 223 c 16
 100 224 103 224 106 224 c 0
 123 224 134 207 151 196 c 0
 174 181 191 171 206 154 c 1
 190 120 177 113 155 89 c 0
 132 63 126 33 92 25 c 16
EndSplineSet
Validated: 1
EndChar
